<svg id="Layer_1" enable-background="new 0 0 512 512" height="512" viewBox="0 0 512 512" width="512" xmlns="http://www.w3.org/2000/svg"><g><g><g><path d="m512 256-103.874 205.917c-42.53 31.473-95.155 50.083-152.126 50.083-141.385 0-256-114.615-256-256s114.615-256 256-256c126.813 0 232.09 92.207 252.444 213.233 2.338 13.907 3.556 28.195 3.556 42.767z" fill="#ffe65a"/></g></g><g><g><g><path d="m164.096 61.546h179.252v215.682h-179.252z" fill="#afe6ff"/></g><g><path d="m190.631 76.649h152.717v-15.103h-179.252v215.682h26.535z" fill="#73c8f0"/></g><g><path d="m343.348 61.546v215.682h-179.252v-215.682zm12.358-12.358h-12.358-179.252-12.358v12.358 215.682 12.358h12.358 179.252 12.358v-12.358-215.682z" fill="#fff"/></g></g><g><path d="m117.482 28.71h267.233v14.035h-267.233z" fill="#a56941"/></g><g><g><path d="m130.396 204.675v-155.403h70.397v85.005c0 38.88-31.518 70.398-70.397 70.398z" fill="#fd4755"/></g><g><path d="m177.744 291.076h-47.348v-112.634c26.15 0 47.348 21.199 47.348 47.348z" fill="#fd4755"/></g><g><path d="m130.396 49.272v129.17 26.233 86.401h8.985v-241.804z" fill="#fb2b3a"/></g></g><g><path d="m143.088 61.876c-2.73 0-4.943-2.213-4.943-4.943v-28.375c0-2.73 2.213-4.943 4.943-4.943s4.943 2.213 4.943 4.943v28.374c0 2.73-2.214 4.944-4.943 4.944z" fill="#b48255"/></g><g><path d="m164.097 61.876c-2.73 0-4.943-2.213-4.943-4.943v-28.375c0-2.73 2.213-4.943 4.943-4.943s4.943 2.213 4.943 4.943v28.374c0 2.73-2.214 4.944-4.943 4.944z" fill="#b48255"/></g><g><path d="m185.105 61.876c-2.73 0-4.943-2.213-4.943-4.943v-28.375c0-2.73 2.213-4.943 4.943-4.943s4.943 2.213 4.943 4.943v28.374c0 2.73-2.213 4.944-4.943 4.944z" fill="#b48255"/></g><g><circle cx="113.541" cy="35.766" fill="#b48255" r="11.759"/></g><g><g><path d="m376.639 204.675v-155.403h-70.397v85.005c0 38.88 31.518 70.398 70.397 70.398z" fill="#fd4755"/></g><g><path d="m329.291 291.076h47.348v-112.634c-26.15 0-47.348 21.199-47.348 47.348z" fill="#fd4755"/></g><g><path d="m376.639 49.272v129.17 26.233 86.401h-8.985v-241.804z" fill="#fb2b3a"/></g></g><g><path d="m363.947 61.876c-2.73 0-4.943-2.213-4.943-4.943v-28.375c0-2.73 2.213-4.943 4.943-4.943s4.943 2.213 4.943 4.943v28.374c0 2.73-2.213 4.944-4.943 4.944z" fill="#b48255"/></g><g><path d="m342.939 61.876c-2.73 0-4.943-2.213-4.943-4.943v-28.375c0-2.73 2.213-4.943 4.943-4.943s4.943 2.213 4.943 4.943v28.374c0 2.73-2.214 4.944-4.943 4.944z" fill="#b48255"/></g><g><path d="m321.93 61.876c-2.73 0-4.943-2.213-4.943-4.943v-28.375c0-2.73 2.213-4.943 4.943-4.943s4.943 2.213 4.943 4.943v28.374c-.001 2.73-2.214 4.944-4.943 4.944z" fill="#b48255"/></g><g><circle cx="393.494" cy="35.766" fill="#b48255" r="11.759"/></g></g><g><g><path d="m418.655 255.176v159.763h38.029c34.627-43.664 55.316-98.883 55.316-158.939 0-14.59-1.239-28.889-3.583-42.812h-47.774c-23.189 0-41.988 18.799-41.988 41.988z" fill="#55c7a6"/><g><path d="m497.191 213.188h-36.548c-23.189 0-41.988 18.799-41.988 41.988v159.763h36.548v-159.763c0-23.189 18.799-41.988 41.988-41.988z" fill="#1c9585"/></g><path d="m481.872 376.565h-102.762c-16.398 0-29.691 13.293-29.691 29.691v26.232h92.019c15.863-16.663 29.492-35.466 40.434-55.923z" fill="#96dbbf"/><g><path d="m414.136 376.565h-35.026c-16.398 0-29.691 13.293-29.691 29.691v26.232h35.025v-26.232c.001-16.398 13.294-29.691 29.692-29.691z" fill="#55c7a6"/></g><path d="m349.42 432.487v29.415h58.707c11.94-8.836 23.09-18.678 33.312-29.415z" fill="#965028"/></g><path d="m50.323 408.435h244.276v100.669c13.433-2.031 26.519-5.117 39.182-9.151v-130.7h-307.41c6.824 13.81 14.848 26.919 23.952 39.182z" fill="#a56941"/></g><g><g><path d="m178.656 491.842-151.958-123.544h305.29z" fill="#fff"/></g><g><path d="m289.998 368.298h-222.682l111.34 84.423z" fill="#e1faff"/></g></g><g><g><g><path d="m161.517 354.246h110.258v14.234h-110.258z" fill="#e1faff"/></g><g><path d="m161.517 354.246h25.883v14.234h-25.883z" fill="#a0ebff"/></g><g><path d="m272.989 357.267h-112.687c-15.893 0-28.777-12.884-28.777-28.777h170.242c0 15.893-12.884 28.777-28.778 28.777z" fill="#fff"/></g><g><path d="m164.437 328.49h-32.913c0 15.893 12.884 28.777 28.777 28.777h32.913c-15.893 0-28.777-12.884-28.777-28.777z" fill="#e1faff"/></g></g></g><g><g><path d="m60.964 282.05c-8.192 17.665-13.935 53.899-13.935 63.369 0 12.661 10.264 22.925 22.925 22.925s22.925-10.264 22.925-22.925c0-9.47-5.742-45.704-13.935-63.369z" fill="#fff"/></g><g><g><path d="m32.634 239.085h86.556v6.28h-86.556z" fill="#55c7a6" transform="matrix(.127 -.992 .992 .127 -173.999 286.727)"/></g><g><path d="m73.553 285.152h-6.28c0-16.394-18.103-60.531-18.285-60.975l5.806-2.392c.766 1.86 18.759 45.743 18.759 63.367z" fill="#55c7a6"/></g><g><path d="m66.831 210.42h-2.38v-2.379c0-6.937-5.624-12.561-12.561-12.561s-12.561 5.624-12.561 12.561v2.379h-2.38c-6.937 0-12.561 5.624-12.561 12.561s5.624 12.561 12.561 12.561h2.38v2.38c0 6.937 5.624 12.561 12.561 12.561s12.561-5.624 12.561-12.561v-2.38h2.38c6.937 0 12.561-5.624 12.561-12.561s-5.624-12.561-12.561-12.561z" fill="#ffa50a"/><g><circle cx="51.891" cy="222.981" fill="#fee45a" r="7.955"/></g></g><g><path d="m108.913 245.458h-2.38v-2.379c0-6.937-5.624-12.561-12.561-12.561s-12.561 5.624-12.561 12.561v2.379h-2.38c-6.937 0-12.561 5.624-12.561 12.561s5.624 12.561 12.561 12.561h2.38v2.38c0 6.937 5.624 12.561 12.561 12.561s12.561-5.624 12.561-12.561v-2.38h2.38c6.937 0 12.561-5.624 12.561-12.561 0-6.938-5.624-12.561-12.561-12.561z" fill="#ffa50a"/><g><circle cx="93.972" cy="258.019" fill="#fee45a" r="7.955"/></g></g><g><path d="m104.468 175.574h-2.38v-2.379c0-6.937-5.624-12.561-12.561-12.561s-12.561 5.624-12.561 12.561v2.379h-2.38c-6.937 0-12.561 5.624-12.561 12.561s5.624 12.561 12.561 12.561h2.38v2.38c0 6.937 5.624 12.561 12.561 12.561s12.561-5.624 12.561-12.561v-2.38h2.38c6.937 0 12.561-5.624 12.561-12.561s-5.624-12.561-12.561-12.561z" fill="#ffa50a"/><g><circle cx="89.528" cy="188.135" fill="#fee45a" r="7.955"/></g></g></g><g><path d="m60.846 345.418c0-9.47 5.742-45.704 13.935-63.369h-13.817c-8.192 17.665-13.935 53.899-13.935 63.369 0 12.661 10.264 22.925 22.925 22.925 2.408 0 4.728-.376 6.908-1.064-9.283-2.931-16.016-11.608-16.016-21.861z" fill="#e1faff"/></g></g></g></svg>