<svg id="Layer_1" enable-background="new 0 0 511.758 511.758" height="512" viewBox="0 0 511.758 511.758" width="512" xmlns="http://www.w3.org/2000/svg"><g><g><circle cx="255.879" cy="255.879" fill="#afe6ff" r="255.879"/></g><g><g><g><path d="m197.472.711-61.99 271.319 23.252 5.312 62.028-271.484z" fill="#fff"/></g><g><path d="m197.472.711-61.99 271.319 8.194 1.872 62.004-271.377z" fill="#afe6ff"/></g><g fill="#ffa50a"><path d="m161.292 266.143-25.81 5.887 3.873-16.952 25.81-5.887z"/><path d="m169.163 231.695-25.811 5.888 3.873-16.952 25.811-5.887z"/><path d="m177.033 197.248-25.811 5.887 3.874-16.951 25.81-5.888z"/><path d="m184.905 162.795-25.811 5.887 3.873-16.952 25.811-5.887z"/><path d="m192.776 128.348-25.811 5.887 3.873-16.952 25.811-5.887z"/><path d="m200.646 93.9-25.811 5.888 3.873-16.952 25.811-5.887z"/><path d="m208.493 59.557-25.811 5.887 3.873-16.951 25.811-5.888z"/><path d="m216.363 25.11-25.811 5.887 3.873-16.952 25.811-5.887z"/></g><g fill="#fa870a"><path d="m148.451 253.003-9.096 2.075-3.873 16.952 9.096-2.075z"/><path d="m156.321 218.556-9.096 2.075-3.873 16.952 9.096-2.075z"/><path d="m164.192 184.109-9.096 2.075-3.873 16.951 9.096-2.074z"/><path d="m172.064 149.655-9.097 2.075-3.873 16.952 9.096-2.075z"/><path d="m179.934 115.208-9.096 2.075-3.873 16.952 9.096-2.075z"/><path d="m187.804 80.761-9.096 2.075-3.873 16.952 9.096-2.075z"/><path d="m195.651 46.418-9.096 2.075-3.873 16.951 9.096-2.074z"/><path d="m203.521 11.971-9.096 2.074-3.873 16.952 9.096-2.074z"/></g></g><path d="m196.746 414.163h-101.979c-8.881 0-16.29-6.784-17.07-15.63l-19.509-264.302h175.137l-19.509 264.301c-.78 8.847-8.19 15.631-17.07 15.631z" fill="#fff"/><path d="m108.094 398.533-19.509-264.301h-30.397l19.509 264.301c.781 8.846 8.19 15.63 17.07 15.63h30.398c-8.881 0-16.29-6.784-17.071-15.63z" fill="#e1faff"/><g><path d="m160.425 200.594 15.163-66.363h-8.622l-15.163 66.363z" fill="#e0f5ff"/><g fill="#ffe65a"><path d="m177.033 197.248-25.811 5.887 3.874-16.951 25.81-5.888z"/><path d="m184.905 162.795-25.811 5.887 3.873-16.952 25.811-5.887z"/></g><g fill="#ffc305"><path d="m164.192 184.109-9.096 2.075-3.873 16.951 9.096-2.074z"/><path d="m172.064 149.655-9.097 2.075-3.873 16.952 9.096-2.075z"/></g></g><g><path d="m159.37 82.54c-1.078-1.198-2.191-2.376-3.344-3.529-35.384-35.384-92.752-35.384-128.135 0s-35.384 92.752 0 128.135c1.153 1.153 2.331 2.266 3.529 3.344z" fill="#ffa50a"/></g><g><path d="m150.666 91.244c-1.067-1.207-2.173-2.391-3.327-3.546-30.586-30.586-80.175-30.586-110.761 0s-30.586 80.175 0 110.761c1.154 1.154 2.339 2.26 3.546 3.327z" fill="#ffdc64"/></g><g fill="#fa870a"><path d="m35.617 101.681c-6.853 9.302-11.11 19.913-12.77 30.846-.429 2.826 1.804 5.358 4.663 5.358h40.546c4.193 0 6.293-5.07 3.328-8.035l-28.67-28.67c-2.026-2.025-5.398-1.804-7.097.501z"/><path d="m68.055 148.272h-40.546c-2.858 0-5.092 2.532-4.662 5.358 1.66 10.933 5.917 21.544 12.77 30.846 1.699 2.306 5.071 2.527 7.096.501l28.67-28.67c2.966-2.965.866-8.035-3.328-8.035z"/><path d="m50.059 93.835 28.67 28.67c2.965 2.965 8.035.865 8.035-3.328v-40.546c0-2.858-2.532-5.092-5.358-4.663-10.933 1.66-21.544 5.917-30.846 12.77-2.306 1.699-2.526 5.072-.501 7.097z"/><path d="m105.187 122.504 28.67-28.67c2.025-2.025 1.804-5.398-.501-7.096-9.302-6.853-19.913-11.11-30.846-12.77-2.826-.429-5.358 1.804-5.358 4.662v40.546c0 4.193 5.069 6.293 8.035 3.328z"/></g><path d="m58.188 134.231 4.012 45.478 45.478-45.478z" fill="#fff5aa"/><g fill="#ffa50a"><path d="m61.048 166.643 10.336-10.336c2.965-2.965.865-8.035-3.328-8.035h-8.629z"/><path d="m72.638 134.231h-14.45l.322 3.653h9.545c2.406.001 4.116-1.67 4.583-3.653z"/><path d="m63.034 199.886 14.663 198.647c.781 8.846 8.19 15.63 17.07 15.63h101.979c8.881 0 16.29-6.784 17.07-15.63l14.663-198.647z"/></g><path d="m108.066 398.533-14.663-198.647h-30.37l14.663 198.647c.781 8.846 8.19 15.63 17.07 15.63h30.37c-8.88 0-16.289-6.784-17.07-15.63z" fill="#fa870a"/></g><g id="XMLID_27_"><path id="XMLID_28_" d="m465.268 254.139c0 72.063-58.419 130.482-130.482 130.482s-130.482-58.419-130.482-130.482z" fill="#8bc727"/><path d="m236.983 254.139h-32.678c0 72.063 58.419 130.482 130.482 130.482 5.534 0 10.986-.348 16.339-1.016-64.352-8.04-114.143-62.937-114.143-129.466z" fill="#78a91f"/><path id="XMLID_29_" d="m451.075 254.139c0 64.225-52.064 116.289-116.289 116.289s-116.289-52.064-116.289-116.289z" fill="#b5f43b"/><path id="XMLID_31_" d="m441.792 254.139c0 59.098-47.908 107.006-107.006 107.006s-107.006-47.908-107.006-107.006z" fill="#fe646f"/><path d="m273.686 254.139h-45.905c0 59.098 47.908 107.006 107.006 107.006 7.88 0 15.558-.86 22.952-2.476-48.066-10.507-84.053-53.313-84.053-104.53z" fill="#fd4755"/><g fill="#383838"><path id="XMLID_48_" d="m299.126 289.872c-4.503 4.144-6.054 9.436-3.465 11.818s8.338.955 12.841-3.189 3.465-11.818 3.465-11.818-8.338-.955-12.841 3.189z"/><path id="XMLID_47_" d="m357.605 286.683s-1.038 7.674 3.465 11.818 10.252 5.572 12.841 3.189 1.038-7.674-3.465-11.818c-4.502-4.144-12.841-3.189-12.841-3.189z"/><path id="XMLID_41_" d="m381.692 268.09s.859 7.696 6.235 10.621c5.375 2.925 11.299 2.912 13.231-.029s-.859-7.696-6.235-10.621c-5.375-2.925-13.231.029-13.231.029z"/><path id="XMLID_44_" d="m334.316 295.382s6.63 4.751 6.63 10.612-2.968 10.612-6.63 10.612-6.63-4.751-6.63-10.612c0-5.86 6.63-10.612 6.63-10.612z"/><path id="XMLID_42_" d="m287.41 268.09s-.859 7.696-6.235 10.621c-5.375 2.925-11.299 2.912-13.231-.029s.859-7.696 6.235-10.621 13.231.029 13.231.029z"/></g></g><g><path d="m259.854 395.889h158.21v32.054h-158.21z" fill="#e1faff"/><path d="m194.92 356.068c7.86 26.937 32.723 46.624 62.199 46.624h163.681c29.476 0 54.338-19.687 62.199-46.624z" fill="#fff"/><path d="m269.034 356.068h-74.114c7.86 26.937 32.723 46.624 62.199 46.624h74.114c-29.476 0-54.339-19.687-62.199-46.624z" fill="#e1faff"/></g><g><path d="m456.928 414.172h-402.098c15.806 20.048 34.554 37.663 55.581 52.22h290.935c21.028-14.557 39.776-32.172 55.582-52.22z" fill="#a56941"/><path d="m54.83 414.172c15.806 20.048 34.554 37.663 55.581 52.22h24.317l-.028-52.22z" fill="#965028"/></g></g></svg>