<svg id="Layer_1" enable-background="new 0 0 512 512" height="512" viewBox="0 0 512 512" width="512" xmlns="http://www.w3.org/2000/svg"><g><g><circle cx="256" cy="256" fill="#afe6ff" r="256"/></g><g><path d="m444.354 85.713-18.969-18.969-46.125 46.126c-15.904-14.112-33.93-25.479-53.287-33.735l-76.836 180.155 181.72-73.058c-8.158-20.293-19.333-38.469-32.796-54.225z" fill="#fff"/><path d="m262.651 227.603-13.514 31.687 181.72-73.058c-3.077-7.654-6.588-15.003-10.484-22.039z" fill="#dafffb"/><g><path d="m492.276 7.828 10.994 10.994c4.603 4.603 4.603 12.067 0 16.67l-56.533 56.533c-4.603 4.603-12.067 4.603-16.67 0l-10.994-10.994c-4.603-4.603-4.603-12.067 0-16.67l56.533-56.533c4.603-4.603 12.067-4.603 16.67 0z" fill="#a56941"/></g><path d="m495.366 27.588-56.533 56.533c-4.603 4.603-12.067 4.603-16.67 0l7.904 7.904c4.603 4.603 12.067 4.603 16.67 0l56.533-56.533c4.603-4.603 4.603-12.067 0-16.67l-7.904-7.904c4.603 4.603 4.603 12.067 0 16.67z" fill="#965028"/></g><g><path d="m42.514 297.412c-7.418-6.193-11.705-15.358-11.705-25.022 0-9.663 4.287-18.828 11.705-25.022-5.562-7.902-7.331-17.864-4.83-27.198s9.014-17.077 17.782-21.139c-3.327-9.072-2.458-19.153 2.374-27.522s13.127-14.162 22.648-15.817c-.866-9.624 2.583-19.137 9.416-25.97s16.345-10.282 25.97-9.416c1.655-9.52 7.448-17.816 15.817-22.648s18.45-5.701 27.522-2.374c4.062-8.768 11.806-15.281 21.139-17.782s19.296-.732 27.198 4.83c6.193-7.418 15.358-11.705 25.022-11.705 9.663 0 18.828 4.287 25.022 11.705 7.902-5.562 17.864-7.331 27.198-4.83s17.077 9.014 21.139 17.782c9.072-3.327 19.153-2.458 27.522 2.374s14.162 13.127 15.817 22.648c9.624-.866 19.137 2.583 25.97 9.416s10.282 16.345 9.416 25.97c9.52 1.655 17.816 7.448 22.648 15.817s5.701 18.45 2.374 27.522c8.768 4.062 15.281 11.805 17.782 21.139s.732 19.296-4.83 27.198c7.418 6.193 11.705 15.358 11.705 25.021s-4.287 18.828-11.705 25.022c5.562 7.902 7.331 17.865 4.83 27.198-2.501 9.334-9.014 17.077-17.782 21.139 3.327 9.072 2.458 19.153-2.374 27.522s-13.127 14.162-22.648 15.817c.866 9.624-2.583 19.137-9.416 25.97s-16.345 10.282-25.97 9.416c-1.655 9.52-7.448 17.816-15.817 22.648s-18.449 5.701-27.522 2.374c-4.062 8.768-11.806 15.281-21.139 17.782s-19.296.732-27.198-4.83c-6.193 7.418-15.358 11.705-25.021 11.705s-18.828-4.287-25.021-11.705c-7.902 5.562-17.865 7.331-27.198 4.83-9.334-2.501-17.077-9.014-21.139-17.782-9.072 3.327-19.153 2.458-27.522-2.374s-14.162-13.127-15.817-22.648c-9.624.866-19.137-2.583-25.97-9.416s-10.282-16.345-9.416-25.97c-9.52-1.655-17.816-7.448-22.648-15.817s-5.701-18.45-2.374-27.522c-8.768-4.062-15.281-11.806-17.782-21.139s-.734-19.295 4.828-27.197z" fill="#fe9738"/><circle cx="232.571" cy="272.39" fill="#fe7701" r="174.71"/><circle cx="232.571" cy="272.39" fill="#cd5014" r="163.234"/><g><path d="m54.325 251.249h356.492v42.282h-356.492z" fill="#fe9738" transform="matrix(0 1 -1 0 504.962 39.819)"/></g><g><path d="m298.315 438.371v-331.962h15.195c14.96 0 27.088 12.128 27.088 27.088v277.787c0 14.96-12.128 27.088-27.088 27.088h-15.195z" fill="#fe9738"/></g><g><path d="m124.545 411.141v-277.5c0-15.039 12.192-27.231 27.231-27.231h15.051v331.962h-15.051c-15.039-.001-27.231-12.192-27.231-27.231z" fill="#fe9738"/></g><g><g><path d="m124.545 150.967h42.282v69.765h-42.282z" fill="#fe7701"/></g><g><path d="m211.418 237.781h42.282v69.765h-42.282z" fill="#fe7701"/></g><g><path d="m298.315 150.967h42.282v69.765h-42.282z" fill="#fe7701"/></g></g><g><g><path d="m124.545 324.207h42.282v69.765h-42.282z" fill="#fe7701"/></g><g><path d="m298.313 324.207h42.282v69.765h-42.282z" fill="#fe7701"/></g></g><g><path d="m54.325 251.249h356.492v42.282h-356.492z" fill="#fe9738"/></g><path d="m398.552 206.991h-331.962v-15.195c0-14.96 12.128-27.088 27.088-27.088h277.787c14.96 0 27.088 12.128 27.088 27.088v15.195z" fill="#fe9738"/><g><path d="m371.321 380.231h-277.5c-15.039 0-27.231-12.192-27.231-27.231v-15.051h331.962v15.051c0 15.039-12.192 27.231-27.231 27.231z" fill="#fe9738"/></g><g fill="#fe7701"><g><path d="m96.668 265.657h42.285v13.465h-42.285z" transform="matrix(0 -1 1 0 -154.579 390.201)"/><path d="m152.421 265.657h42.285v13.465h-42.285z" transform="matrix(0 -1 1 0 -98.826 445.953)"/></g><g><path d="m270.439 265.657h42.285v13.465h-42.285z" transform="matrix(0 -1 1 0 19.192 563.971)"/><path d="m326.191 265.657h42.285v13.465h-42.285z" transform="matrix(0 -1 1 0 74.945 619.724)"/></g><g><path d="m183.553 179.115h42.285v13.465h-42.285z" transform="matrix(0 -1 1 0 18.849 390.543)"/><path d="m239.306 179.115h42.285v13.465h-42.285z" transform="matrix(0 -1 1 0 74.602 446.296)"/></g><g><path d="m183.553 352.34h42.285v13.465h-42.285z" transform="matrix(0 -1 1 0 -154.376 563.768)"/><path d="m239.306 352.34h42.285v13.465h-42.285z" transform="matrix(0 -1 1 0 -98.623 619.521)"/></g></g></g><g><path d="m112.022 324.822-.478 6.81s-5.605-11.225-14.069-14.512l-2.81 6.767s-5.072-11.833-15.813-12.224l-1.822 6.722s-8.063-11.649-16.279-9.935l-.046 5.072s-8.362-8.999-15.281-7.012l-.565 4.709s-3.895-4.557-13.368-6.235c1.572 8.695 6.413 12.34 6.413 12.34l-5.17.384c-2.368 6.26 7.249 14.144 7.249 14.144l-5.553-.1c-2.106 7.452 10.421 15.137 10.421 15.137l-7.409 1.475c.128 9.815 12.94 14.775 12.94 14.775l-7.487 2.376c3.362 7.818 15.494 13.247 15.494 13.247l-7.468.246c29.19 60.618 78.535 17.964 78.535 17.964s35.094-56.862-17.434-72.15z" fill="#97d729"/><path d="m129.494 392.927c-16.41 8.664-46.486 16.501-66.803-25.69l7.468-.246s-12.131-5.429-15.494-13.247l7.487-2.376s-12.812-4.96-12.94-14.775l7.409-1.475s-12.526-7.685-10.421-15.137l5.553.1s-5.163-4.237-6.989-8.965c-.611-.654-4.597-4.596-13.274-6.132 1.572 8.695 6.413 12.34 6.413 12.34l-5.17.384c-2.368 6.26 7.249 14.144 7.249 14.144l-5.553-.1c-2.106 7.452 10.421 15.137 10.421 15.137l-7.409 1.475c.128 9.815 12.94 14.775 12.94 14.775l-7.487 2.376c3.362 7.818 15.494 13.247 15.494 13.247l-7.469.246c29.19 60.618 78.535 17.964 78.535 17.964s.588-.955 1.498-2.647z" fill="#8bc727"/><g><path d="m100.246 316.057h7.769v117.158h-7.769z" fill="#78a91f" transform="matrix(.681 -.732 .732 .681 -241.085 195.69)"/></g></g><g><path d="m188.634 306.666-4.419 3.839s3.407-10.203.269-17.328l-5.806 2.399s4.099-10.249-2.176-16.998l-5.179 2.971s2.174-11.95-3.846-15.893l-3.103 3.047s.386-10.525-5.013-13.516l-3.197 2.512s.402-5.124-4.325-11.885c-4.318 6.224-3.594 11.369-3.594 11.369l-3.368-2.901c-5.231 2.36-4.18 12.97-4.18 12.97l-3.306-3.427c-5.795 3.242-2.859 15.495-2.859 15.495l-5.386-3.597c-5.873 6.028-1.113 16.803-1.113 16.803l-5.979-3.099c-2.701 6.778 1.362 17.424 1.362 17.424l-4.677-4.379c-19.054 54.447 36.722 58.504 36.722 58.504s55.75-13.196 33.173-54.31z" fill="#97d729"/><path d="m157.937 358.548c-15.201-4.696-38.187-18.178-24.925-56.075l4.677 4.379s-4.063-10.646-1.362-17.425l5.979 3.099s-4.76-10.775 1.113-16.803l5.386 3.598s-2.935-12.253 2.859-15.495l3.306 3.427s-.561-5.699 1.198-9.672c.026-.767-.001-5.573-4.33-11.765-4.318 6.224-3.594 11.369-3.594 11.369l-3.368-2.902c-5.231 2.36-4.18 12.97-4.18 12.97l-3.306-3.427c-5.795 3.242-2.859 15.495-2.859 15.495l-5.386-3.598c-5.873 6.028-1.113 16.803-1.113 16.803l-5.979-3.099c-2.701 6.778 1.362 17.425 1.362 17.425l-4.677-4.379c-19.054 54.447 36.722 58.504 36.722 58.504s.935-.222 2.512-.697z" fill="#8bc727"/><g><path d="m150.319 281.857h6.661v100.449h-6.661z" fill="#78a91f" transform="matrix(.999 -.036 .036 .999 -11.873 5.756)"/></g></g><g><path id="XMLID_82_" d="m195.141 399.742c-17.045 17.267-63.581 20.648-73.955 10.408-9.534-9.411-7.597-56.817 9.448-74.084s40.684-14.402 53.609 10.203c26.932 12.336 27.943 36.206 10.898 53.473z" fill="#fd4755"/><g><path d="m142.895 348.327c11.633-11.784 26.334-14.184 38.608-6.703-13.326-20.246-34.966-21.668-50.869-5.558-17.045 17.267-18.982 64.673-9.448 74.084 1.795 1.772 4.691 3.126 8.312 4.081-4.422-17.048-.639-51.685 13.397-65.904z" fill="#e41f2d"/></g><path d="m202.378 356.797c-1.181-4.542-5.519-12.44-8.698-16.002l9.757-7.045-6.924-6.835-6.899 9.866c-3.602-3.133-7.975-5.915-16.132-8.508-7.091-2.255-16.162.223-16.162.223s.243 10.774 6.502 14.799c2.12 1.363 4.349 2.242 6.478 2.661-1.198.82-2.365 1.781-3.461 2.892-6.191 6.272-3.683 18.786-3.683 18.786s12.546 2.345 18.737-3.926c1.096-1.111 2.042-2.29 2.846-3.498.447 2.123 1.355 4.341 2.745 6.443 4.106 6.206 14.882 6.309 14.882 6.309s1.884-8.963.012-16.165z" fill="#97d729"/><g fill="#8bc727"><path d="m161.646 332.824s9.071-2.478 16.162-.223c3.89 1.237 6.703 2.296 8.972 3.406 2.508 1.227 4.859 2.852 6.884 4.775l.015.014 7.16-9.553 2.565 2.531-6.892-6.859-6.899 9.866c-3.602-3.133-7.975-5.915-16.132-8.508-7.091-2.255-16.162.223-16.162.223s.243 10.774 6.502 14.799c.245.158.496.287.744.431-2.775-4.744-2.919-10.902-2.919-10.902z"/><path d="m171.165 353.175c1.096-1.11 2.263-2.072 3.461-2.892-2.128-.42-4.356-1.297-6.475-2.66-.446.388-.887.791-1.314 1.224-6.191 6.272-3.683 18.786-3.683 18.786s1.575.293 3.88.394c-.234-4.207.149-10.818 4.131-14.852z"/></g></g></g></svg>