<svg id="Layer_1" enable-background="new 0 0 512 512" height="512" viewBox="0 0 512 512" width="512" xmlns="http://www.w3.org/2000/svg"><g><g><g><path d="m512 256c0 97.098-54.058 181.571-133.719 224.963l-307.759-48.514c-43.7-45.922-70.522-108.053-70.522-176.449 0-141.385 114.615-256 256-256s256 114.615 256 256z" fill="#afe6ff"/></g></g><g><path d="m336.039 510.429h-51.709v-48.06h95.582v4.186c0 24.231-19.643 43.874-43.873 43.874z" fill="#ffe65a"/></g><g><g><g><path d="m238.928 167.253h-83.493c-18.722 0-33.9-3.684-33.9-22.406v-54.631c0-18.722 15.177-33.9 33.9-33.9h83.493c18.722 0 33.9 15.177 33.9 33.9v54.632c-.001 18.722-15.178 22.405-33.9 22.405z" fill="#a56941"/></g></g><g><g><path d="m136.164 144.848v-54.632c0-18.722 15.177-33.9 33.9-33.9h-14.629c-18.722 0-33.9 15.177-33.9 33.9v54.632c0 18.722 15.177 22.406 33.9 22.406h14.629c-18.723-.001-33.9-3.684-33.9-22.406z" fill="#965028"/></g></g><g><path d="m268.577 301.933h-142.046c-30.929 0-56.002 25.073-56.002 56.002v74.516c46.633 49.003 112.484 79.549 185.471 79.549 23.756 0 46.751-3.249 68.579-9.305v-144.76c0-30.929-25.073-56.002-56.002-56.002z" fill="#ffe65a"/></g><g><g><path d="m197.554 332.582c-14.643 0-26.514-11.871-26.514-26.514v-59.386h53.027v59.386c0 14.643-11.87 26.514-26.513 26.514z" fill="#ff965a"/></g></g><g><g><path d="m197.554 281.933c-41.984 0-76.018-34.035-76.018-76.018v-61.465c0-24.196 19.615-43.811 43.811-43.811h64.415c24.196 0 43.066 19.615 43.066 43.811v61.465c-.001 41.983-33.29 76.018-75.274 76.018z" fill="#ffbe82"/></g></g><g><g><path d="m204.414 127.26h-46.615c0-20.001 16.214-36.215 36.215-36.215h46.615c0 20.001-16.214 36.215-36.215 36.215z" fill="#a56941"/></g></g><g><g><g><path d="m136.314 217.776v-7.312c-.089-1.507-.15-3.021-.15-4.55v-94.132c-8.975 8.023-14.629 19.683-14.629 32.668v61.464c0 22.304 9.605 42.364 24.905 56.27.9.818 1.82 1.615 2.758 2.389 1.877 1.549 3.83 3.01 5.852 4.376.901.609 1.82 1.192 2.748 1.763-13.289-13.688-21.484-32.35-21.484-52.936z" fill="#ff965a"/></g></g></g><g><g><path d="m272.827 196.581v-44.742c9.747 0 17.649 7.902 17.649 17.649v9.444c0 9.747-7.902 17.649-17.649 17.649z" fill="#ff965a"/></g></g><g><g><path d="m121.535 196.581v-44.742c-9.747 0-17.649 7.902-17.649 17.649v9.444c0 9.747 7.902 17.649 17.649 17.649z" fill="#ff965a"/></g></g><g><g><path d="m171.3 185.087c-3.462 0-6.269-2.807-6.269-6.269v-17.146c0-3.462 2.807-6.269 6.269-6.269s6.269 2.807 6.269 6.269v17.146c0 3.462-2.807 6.269-6.269 6.269z" fill="#373c41"/></g></g><g><g><path d="m222.5 185.087c-3.462 0-6.269-2.807-6.269-6.269v-17.146c0-3.462 2.807-6.269 6.269-6.269s6.269 2.807 6.269 6.269v17.146c0 3.462-2.807 6.269-6.269 6.269z" fill="#373c41"/></g></g><g><g><g><path d="m179.56 152.267h-18.283c-3.462 0-6.269-2.807-6.269-6.269 0-3.462 2.807-6.269 6.269-6.269h18.283c3.462 0 6.269 2.807 6.269 6.269 0 3.462-2.807 6.269-6.269 6.269z" fill="#965028"/></g></g></g><g><g><g><path d="m231.805 152.267h-18.283c-3.462 0-6.269-2.807-6.269-6.269 0-3.462 2.807-6.269 6.269-6.269h18.283c3.462 0 6.269 2.807 6.269 6.269 0 3.462-2.807 6.269-6.269 6.269z" fill="#965028"/></g></g></g><g><g><path d="m178.994 217.889c0 10.25 8.309 18.56 18.559 18.56s18.56-8.309 18.56-18.56z" fill="#fff"/></g></g><g><g><path d="m187.396 195.83c-1.559 5.492 1.274 11.474 6.69 13.277 1.09.363 2.256.559 3.468.559s2.378-.196 3.468-.559c5.417-1.803 8.249-7.786 6.69-13.277l-7.601-26.786c-.731-2.576-4.383-2.576-5.114 0z" fill="#ff965a"/></g></g><g><path d="m256.47 367.827v-65.894h-25.06l-34.22 107.824-.244 95.385c18.959 4.477 38.728 6.858 59.054 6.858 9.577 0 19.026-.544 28.33-1.568v-97.544c-16.515-8.268-27.86-25.335-27.86-45.061z" fill="#433f43"/></g><g><g><path d="m198.392 332.582 24.424 22.385 24.019-53.034-22.803-3.132z" fill="#fff"/></g></g><g><path d="m70.528 357.935v74.516c6.576 6.91 13.543 13.441 20.849 19.583v-94.099c0-30.929 25.073-56.002 56.002-56.002h-20.849c-30.928 0-56.002 25.073-56.002 56.002z" fill="#ffc305"/></g><g><path d="m138.666 367.827c0 19.726-11.345 36.793-27.86 45.061v53.962c26.047 17.971 55.576 31.254 87.384 38.596l-.244-95.688-34.219-107.824h-25.06v65.893z" fill="#554e56"/></g><g><path d="m138.666 367.827c0 19.726-11.345 36.793-27.86 45.061v53.962c6.739 4.65 13.712 8.984 20.898 12.983v-66.945c16.515-8.268 27.86-25.335 27.86-45.061v-65.894h-20.898z" fill="#433f43"/></g><g><g><path d="m197.554 332.582-24.424 22.385-24.893-53.034 22.803-3.132z" fill="#fff"/></g></g><g><path d="m197.554 505.29c5.083 1.187 10.228 2.212 15.423 3.091v-100.101h-15.423z" fill="#554e56"/></g><g><g><path d="m202.217 428.557c-2.781 0-5.035-2.254-5.035-5.035 0-2.781 2.254-5.035 5.035-5.035 2.781 0 5.035 2.254 5.035 5.035 0 2.78-2.254 5.035-5.035 5.035z" fill="#433f43"/></g></g><g><g><path d="m202.217 453.634c-2.781 0-5.035-2.254-5.035-5.035 0-2.781 2.254-5.035 5.035-5.035 2.781 0 5.035 2.254 5.035 5.035 0 2.781-2.254 5.035-5.035 5.035z" fill="#433f43"/></g></g><g><g><path d="m202.217 478.712c-2.781 0-5.035-2.254-5.035-5.035 0-2.781 2.254-5.035 5.035-5.035 2.781 0 5.035 2.254 5.035 5.035 0 2.78-2.254 5.035-5.035 5.035z" fill="#433f43"/></g></g><g><g><path d="m202.217 503.789c-2.781 0-5.035-2.254-5.035-5.035 0-2.781 2.254-5.035 5.035-5.035 2.781 0 5.035 2.254 5.035 5.035 0 2.781-2.254 5.035-5.035 5.035z" fill="#433f43"/></g></g><g><g><path d="m121.536 182.896v-73.743h10.082v63.661c0 5.568-4.514 10.082-10.082 10.082z" fill="#965028"/></g></g><g><g><path d="m272.827 182.896v-73.743h-10.082v63.661c0 5.568 4.514 10.082 10.082 10.082z" fill="#a56941"/></g></g></g><g><g><g><path d="m419.882 263.939v-59.421h-29.703v59.421c-19.09 6.246-32.885 24.191-32.885 45.369v119.069c0 6.303 5.109 11.412 11.412 11.412h72.65c6.302 0 11.412-5.109 11.412-11.412v-119.069c0-21.177-13.796-39.123-32.886-45.369z" fill="#fd4755"/></g><g><path d="m370.024 428.377v-111.29c0-21.177 13.795-39.123 32.885-45.369v-66.361h-12.73v58.581c-19.09 6.246-32.885 24.191-32.885 45.369v119.069c0 6.303 5.109 11.412 11.412 11.412h72.65c6.302 0 11.412-5.109 11.412-11.412h-82.744z" fill="#aa321e"/></g><g><g><path d="m381.767 315.285h56.577v77.679h-56.577z" fill="#fffad7"/></g><g><path d="m393.79 388.417v-68.585c0-2.511 2.036-4.547 4.547-4.547h-16.569v77.679h16.569c-2.512 0-4.547-2.036-4.547-4.547z" fill="#ffebb4"/></g></g><g><path d="m390.179 204.518h29.703v40.921h-29.703z" fill="#f6a96c"/></g><g><path d="m390.179 204.086h29.703v7.895h-29.703z" fill="#d27350"/></g><g><path d="m390.179 204.518h12.657v40.921h-12.657z" fill="#d27350"/></g><g><path d="m421.068 207.257h-32.134c-1.376 0-2.491-1.115-2.491-2.491v-3.646c0-1.376 1.115-2.491 2.491-2.491h32.134c1.376 0 2.491 1.115 2.491 2.491v3.646c0 1.376-1.115 2.491-2.491 2.491z" fill="#f6a96c"/></g></g><g><g><path d="m284.646 344.039v-66.973h-50.807v66.973c0 12.336 8.794 22.615 20.455 24.918v56.605l-16.824 4.314c-2.136.548-3.63 2.473-3.63 4.679 0 2.667 2.162 4.83 4.83 4.83h41.147c2.668 0 4.83-2.163 4.83-4.83v-.024c0-2.194-1.479-4.113-3.601-4.671l-16.854-4.435v-56.467c11.659-2.305 20.454-12.583 20.454-24.919z" fill="#fff"/></g><g><path d="m243.736 434.554c0-2.206 1.494-4.131 3.63-4.679l16.824-4.314v-.138-56.467c-11.66-2.303-20.455-12.582-20.455-24.918v-66.973h-9.897v66.973c0 12.336 8.794 22.615 20.455 24.918v56.605l-16.824 4.314c-2.136.548-3.63 2.473-3.63 4.679 0 2.667 2.162 4.83 4.83 4.83h9.897c-2.667 0-4.83-2.163-4.83-4.83z" fill="#d2f0ff"/></g></g><g><g><path d="m349.67 344.039v-66.973h-50.807v66.973c0 12.336 8.794 22.615 20.455 24.918v56.605l-16.824 4.314c-2.136.548-3.63 2.473-3.63 4.679 0 2.667 2.162 4.83 4.83 4.83h41.147c2.668 0 4.83-2.163 4.83-4.83v-.024c0-2.194-1.479-4.113-3.601-4.671l-16.854-4.435v-56.467c11.659-2.305 20.454-12.583 20.454-24.919z" fill="#fff"/></g><g><path d="m308.76 434.554c0-2.206 1.494-4.131 3.63-4.679l16.824-4.314v-.138-56.467c-11.66-2.303-20.455-12.582-20.455-24.918v-66.973h-9.897v66.973c0 12.336 8.794 22.615 20.455 24.918v56.605l-16.824 4.314c-2.136.548-3.63 2.473-3.63 4.679 0 2.667 2.162 4.83 4.83 4.83h9.897c-2.667 0-4.83-2.163-4.83-4.83z" fill="#d2f0ff"/></g></g><g><path d="m401.855 475.433h-21.943c-5.194 0-9.404-4.21-9.404-9.404s4.21-9.404 9.404-9.404h21.943c5.194 0 9.404 4.21 9.404 9.404s-4.211 9.404-9.404 9.404z" fill="#ffbe82"/></g><g><path d="m452.908 464.461h-225.998c-13.85 0-25.078-11.228-25.078-25.078h276.154c0 13.851-11.228 25.078-25.078 25.078z" fill="#a56941"/></g><g><path d="m246.763 439.384h-44.931c0 13.85 11.228 25.078 25.078 25.078h44.931c-13.851-.001-25.078-11.228-25.078-25.078z" fill="#965028"/></g><g><path d="m318.785 484.837c-4.328 0-7.837-3.508-7.837-7.837v-21.943c0-4.329 3.509-7.837 7.837-7.837s7.837 3.508 7.837 7.837v21.943c0 4.329-3.509 7.837-7.837 7.837z" fill="#ffbe82"/></g><g><path d="m334.459 486.404c-5.194 0-9.404-4.21-9.404-9.404v-21.943c0-5.194 4.21-9.404 9.404-9.404s9.404 4.21 9.404 9.404v21.943c0 5.194-4.21 9.404-9.404 9.404z" fill="#ffbe82"/></g><g><path d="m352.222 486.404c-5.194 0-9.404-4.21-9.404-9.404v-21.943c0-5.194 4.21-9.404 9.404-9.404s9.404 4.21 9.404 9.404v21.943c0 5.194-4.21 9.404-9.404 9.404z" fill="#ffbe82"/></g><g><path d="m369.985 486.404c-5.194 0-9.404-4.21-9.404-9.404v-21.943c0-5.194 4.21-9.404 9.404-9.404s9.404 4.21 9.404 9.404v21.943c0 5.194-4.21 9.404-9.404 9.404z" fill="#ffbe82"/></g></g></g></svg>