<svg id="Layer_1" enable-background="new 0 0 512 512" height="512" viewBox="0 0 512 512" width="512" xmlns="http://www.w3.org/2000/svg"><g><g><circle cx="256" cy="256" fill="#97d729" r="256"/></g><g><circle cx="256" cy="257" fill="#fff" r="212.334"/></g><g><circle cx="256.019" cy="257.321" fill="#afe6ff" r="176.363"/></g><g><circle cx="256.019" cy="257.321" fill="#fff" r="151.868"/></g><g><path d="m380.975 225.279-132.843-91.489c-8.878-6.114-11.119-18.268-5.004-27.146l32.77-47.582c6.114-8.878 18.268-11.119 27.146-5.004l132.842 91.489c8.878 6.114 11.119 18.268 5.004 27.146l-32.77 47.582c-6.113 8.878-18.267 11.119-27.145 5.004z" fill="#fd4755"/><path d="m280.944 132.687 32.77-47.582c6.114-8.878 18.268-11.118 27.146-5.004l-37.816-26.044c-8.878-6.114-21.032-3.874-27.146 5.004l-32.77 47.582c-6.114 8.878-3.874 21.032 5.004 27.147l37.816 26.044c-8.878-6.114-11.118-18.268-5.004-27.147z" fill="#e41f2d"/><path d="m391.585 209.873-132.842-91.489c-8.878-6.114-11.119-18.268-5.004-27.147l32.77-47.582c6.114-8.878 18.268-11.119 27.146-5.004l132.842 91.489c8.878 6.114 11.119 18.268 5.004 27.146l-32.77 47.582c-6.113 8.879-18.267 11.119-27.146 5.005z" fill="#ff965a"/><path d="m391.585 209.873-132.842-91.489c-8.878-6.114-11.119-18.268-5.004-27.147l32.77-47.582c6.114-8.878 18.268-11.119 27.146-5.004l132.842 91.489c8.878 6.114 11.119 18.268 5.004 27.146l-32.77 47.582c-6.113 8.879-18.267 11.119-27.146 5.005z" fill="#fe646f"/><g fill="#fe99a0"><path d="m254.283 114.118 91.916-53.054-15.765-10.857-79.005 45.601c-2.196 6.201-1.103 13.107 2.854 18.31z"/><path d="m295.209 143.498-15.765-10.858 92.859-53.598 15.765 10.858z"/><path d="m337.079 172.334-15.765-10.858 92.859-53.598 15.765 10.858z"/><path d="m363.183 190.312 15.765 10.857 70.262-40.555 2.292-3.328c3.989-5.792 4.401-12.971 1.755-18.965z"/></g></g><g><path id="XMLID_468_" d="m232.923 313.848c-32.729 18.12-74.75 13.317-102.524-14.457-27.773-27.773-32.576-69.794-14.457-102.524l-47.626-47.626c-58.607 58.607-58.606 153.626 0 212.232s153.626 58.607 212.232 0z" fill="#3eaf65"/><path id="XMLID_467_" d="m232.923 313.848c-32.729 18.12-74.75 13.317-102.524-14.457-27.773-27.773-32.576-69.794-14.457-102.524l-36.082-36.083c-52.232 52.232-52.232 136.916 0 189.147 52.232 52.232 136.916 52.232 189.148 0z" fill="#ffe65a"/></g><g><g><path d="m197.586 207.578 300.101 186.582c7.038 4.375 9.196 13.628 4.82 20.665s-13.628 9.196-20.665 4.82c-.199-.124-.438-.282-.63-.414l-290.358-201.41c-2.782-1.93-3.473-5.75-1.543-8.532 1.868-2.692 5.521-3.417 8.275-1.711z" fill="#dcbe82"/><path d="m189.058 209.697c-1.601 2.737-.853 6.287 1.796 8.125l290.358 201.41c.192.132.43.29.63.414 6.836 4.25 15.749 2.321 20.265-4.243z" fill="#c8a06e"/><path d="m497.687 394.16-72.149-44.857c2.159 4.475 2.064 9.919-.753 14.451-2.958 4.758-8.146 7.275-13.371 7.061l69.799 48.417c.192.132.43.29.63.414 7.038 4.375 16.29 2.217 20.665-4.82s2.217-16.291-4.821-20.666z" fill="#ff7350"/><path d="m483.665 420.595c.286.128.572.261.863.37.215.08.434.14.651.21.246.079.49.166.739.232.252.067.506.112.759.166.215.045.429.099.645.134.288.047.577.074.866.104.181.019.362.046.543.059.321.022.641.023.962.024.148.001.296.008.443.005.351-.009.701-.039 1.05-.073.113-.011.227-.016.341-.029.378-.045.754-.11 1.127-.184.08-.016.161-.027.241-.044.399-.086.794-.191 1.185-.309.051-.015.103-.028.154-.044.413-.13.82-.278 1.221-.443.026-.011.053-.02.079-.031.419-.175.831-.369 1.233-.582.007-.004.015-.007.022-.011 2.07-1.099 3.908-2.696 5.318-4.745l-77.713-51.065c-3.01 4.376-7.975 6.683-12.98 6.478l69.799 48.417c.192.132.43.29.63.414.433.27.876.513 1.324.733.164.078.333.14.498.214z" fill="#ff4619"/></g><g><path d="m302.149 186.186c-7.431.197-14.914-1.687-21.111-5.759-1.11-.729-2.16-1.507-3.156-2.325-10.905 14.95-33.852 18.084-49.059 8.091-5.541-3.641-9.629-8.451-12.315-13.856-10.831 8.813-27.086 10.464-39.682 4.376-11.988 28.785-2.242 62.924 24.77 80.674 30.542 20.069 71.571 11.579 91.641-18.963 10.541-16.041 13.19-34.969 8.912-52.238z" fill="#3eaf65"/><path d="m285.048 182.669c-1.382-.658-2.726-1.397-4.01-2.241-1.11-.729-2.16-1.507-3.156-2.325-10.905 14.95-33.852 18.084-49.059 8.091-5.541-3.641-9.629-8.451-12.315-13.856-6.835 5.561-15.83 8.272-24.705 7.987-10.707 22.625-3.399 50.255 18.118 64.394 23.545 15.471 55.174 8.927 70.645-14.618 9.618-14.637 10.681-32.376 4.482-47.432z" fill="#dfffa6"/><path d="m202.465 179.213c-3.474.853-7.077 1.226-10.661 1.111-10.707 22.625-3.399 50.255 18.118 64.394 1.24.815 2.506 1.555 3.788 2.248-20.503-16.131-25.656-45.484-11.245-67.753z" fill="#c5f274"/><path d="m258.603 190.754c-10.009 2.551-21.143 1.115-29.78-4.561-1.588-1.043-3.057-2.183-4.411-3.404-2.375 1.663-4.491 3.779-6.181 6.35-7.15 10.881-4.125 25.499 6.756 32.649s25.499 4.125 32.649-6.756c4.958-7.542 5.017-16.876.967-24.278z" fill="#aac85a"/><g fill="#dfffa6"><path d="m227.889 211.905c.779-1.185 3.237-2.89 5.083-4.067.401-.255.914-.252 1.312.009.397.261.605.731.529 1.2-.348 2.161-.938 5.093-1.717 6.279-1.301 1.979-3.521 2.818-4.959 1.873s-1.548-3.315-.248-5.294z"/><path d="m241.981 191.361c-.355 1.283-.641 2.793-.843 4.049-.076.469.132.94.529 1.2.397.261.911.264 1.312.008 1.846-1.177 4.303-2.882 5.082-4.068.126-.192.228-.39.328-.588-2.15-.026-4.297-.22-6.408-.601z"/><path d="m237.686 216.202c-.287-1.389.245-4.333.719-6.47.103-.464.469-.825.934-.921s.944.09 1.223.475c1.282 1.774 2.938 4.265 3.225 5.654.48 2.319-.497 4.482-2.182 4.831-1.685.348-3.44-1.25-3.919-3.569z"/><path d="m238.272 190.493c-2.142-.616-4.225-1.424-6.211-2.43-.024.468 0 .955.103 1.454.288 1.389 1.944 3.88 3.227 5.653.279.385.757.571 1.223.475s.831-.457.933-.922c.286-1.29.59-2.871.725-4.23z"/><path d="m247.651 212.314c-1.186-.779-2.89-3.237-4.067-5.083-.256-.401-.252-.915.009-1.312s.731-.604 1.201-.528c2.161.348 5.093.938 6.279 1.717 1.979 1.301 2.818 3.521 1.873 4.959s-3.315 1.548-5.295.247z"/><path d="m224.878 197.349c1.186.779 4.118 1.368 6.279 1.715.469.075.939-.132 1.2-.529s.265-.911.009-1.312c-1.177-1.846-2.882-4.303-4.068-5.082-1.98-1.3-4.35-1.189-5.295.249-.944 1.439-.105 3.659 1.875 4.959z"/><path d="m251.949 202.518c-1.389.287-4.332-.245-6.469-.718-.464-.103-.825-.468-.921-.934-.096-.465.089-.944.475-1.223 1.774-1.282 4.265-2.938 5.654-3.226 2.319-.48 4.482.497 4.831 2.182.347 1.684-1.251 3.439-3.57 3.919z"/><path d="m225.264 208.04c1.389-.288 3.879-1.944 5.653-3.227.385-.279.571-.757.475-1.223-.096-.465-.457-.831-.921-.934-2.137-.473-5.081-1.005-6.47-.717-2.319.48-3.917 2.235-3.568 3.92.348 1.684 2.511 2.661 4.831 2.181z"/></g></g><g><path d="m199.257 224.701 250.863 248.88c5.883 5.836 5.921 15.337.084 21.22-5.836 5.883-15.337 5.921-21.22.084-.167-.165-.364-.373-.521-.544l-238.055-261.158c-2.281-2.502-2.102-6.38.401-8.661 2.422-2.208 6.144-2.099 8.448.179z" fill="#dcbe82"/><path d="m190.471 224.863c-2.171 2.311-2.235 5.938-.063 8.321l238.055 261.158c.157.171.355.378.521.544 5.715 5.67 14.833 5.779 20.701.389z" fill="#c8a06e"/><path d="m450.12 473.581-60.311-59.834c1.106 4.844-.202 10.13-3.961 13.918-3.946 3.977-9.565 5.273-14.611 3.897l57.226 62.779c.157.171.355.378.521.544 5.883 5.836 15.383 5.799 21.22-.084s5.8-15.384-.084-21.22z" fill="#ff7350"/><path d="m430.55 496.218c.251.189.499.382.759.553.192.126.391.233.587.349.222.132.441.271.668.391.231.121.468.223.703.331.199.092.396.192.599.275.27.11.546.201.821.294.172.059.342.126.516.178.308.093.62.165.932.238.144.034.286.074.431.103.344.069.692.119 1.04.164.113.015.225.035.339.047.379.04.759.061 1.14.072.082.003.163.009.245.011.408.005.816-.009 1.224-.036.053-.004.107-.004.16-.008.431-.034.862-.088 1.289-.159.028-.005.056-.008.084-.012.447-.077.892-.174 1.332-.292l.024-.006c2.263-.609 4.411-1.755 6.243-3.438l-64.348-67.128c-3.911 3.594-9.266 4.734-14.099 3.416l57.226 62.779c.157.171.355.378.521.544.362.359.739.696 1.127 1.011.141.116.292.213.437.323z" fill="#ff4619"/></g></g></g></svg>