<svg id="Layer_1" enable-background="new 0 0 512 512" height="512" viewBox="0 0 512 512" width="512" xmlns="http://www.w3.org/2000/svg"><g><g><circle cx="256" cy="256" fill="#ffe65a" r="256"/></g><g><path d="m296.83 150.595h-145.77l-8.551-66.72c-1.252-9.766 1.761-19.606 8.266-26.997 6.504-7.391 15.881-11.63 25.727-11.63h76.668c17.193 0 31.807 12.86 33.993 29.914zm-124.664-23.984h97.41l-6.203-48.4c-.656-5.119-5.043-8.979-10.204-8.979h-76.668c-2.999 0-5.741 1.24-7.723 3.491-1.981 2.252-2.863 5.129-2.481 8.104z" fill="#965028"/></g><g><path d="m437.012 487.769h-272.632l-37.54-361.174h272.632z" fill="#a56941"/></g><g><path d="m57.35 487.769h107.03l-37.54-361.174h-46.277z" fill="#965028"/></g><g><path d="m332.284 150.595h-145.77l-8.551-66.72c-1.252-9.766 1.761-19.606 8.266-26.997 6.504-7.391 15.881-11.63 25.727-11.63h76.668c17.193 0 31.807 12.86 33.993 29.914zm-124.664-23.984h97.41l-6.203-48.4c-.656-5.119-5.043-8.979-10.204-8.979h-76.668c-2.999 0-5.741 1.24-7.723 3.491-1.981 2.252-2.863 5.129-2.481 8.104z" fill="#a56941"/></g><g><circle cx="279.789" cy="303.739" fill="#ffe65a" r="81.786"/></g><g><g><g><path d="m318.753 351.35h-75.843c-7.181 0-13.002-5.821-13.002-13.002v-12.196h101.848v12.196c-.001 7.181-5.822 13.002-13.003 13.002z" fill="#ef8c3d"/></g><g><path d="m242.943 338.348v-12.196h-13.036v12.196c0 7.181 5.821 13.002 13.002 13.002h13.036c-7.18 0-13.002-5.821-13.002-13.002z" fill="#dc6a2f"/></g></g><g><g><path d="m322.537 320.824h-83.411c-5.551 0-10.05-4.5-10.05-10.05 0-5.551 4.5-10.05 10.05-10.05h83.411c5.551 0 10.05 4.5 10.05 10.05 0 5.55-4.5 10.05-10.05 10.05z" fill="#fd4755"/></g><g><g><path d="m249.418 317.05c-5.551 0-10.05-4.5-10.05-10.05 0-2.375.826-4.557 2.204-6.277h-2.445c-5.551 0-10.05 4.5-10.05 10.05 0 5.551 4.5 10.05 10.05 10.05h83.411c3.175 0 6.005-1.474 7.847-3.774h-80.967z" fill="#e33442"/></g></g></g><g><g><path d="m295.649 257.984h-28.803c-20.4 0-36.938 16.538-36.938 36.938h102.679c0-20.4-16.538-36.938-36.938-36.938z" fill="#ef8c3d"/></g><g><path d="m281.478 257.984h-14.633c-20.4 0-36.938 16.538-36.938 36.938h14.633c0-20.4 16.538-36.938 36.938-36.938z" fill="#dc6a2f"/></g></g></g><g><path d="m25.558 273.446h175.944v150.759h-175.944z" fill="#fffad7"/></g><g><path d="m25.558 273.446h38.326v150.759h-38.326z" fill="#ffebb4"/></g><g><path d="m218.711 288.666h-175.944l-17.209-15.22h175.944z" fill="#ffaac1"/></g><g><path d="m95.974 400.575h169.864v87.194h-169.864z" fill="#ffaac1"/></g><g><path d="m25.558 400.575h78.984v87.194h-78.984z" fill="#f794af" transform="matrix(-1 0 0 -1 130.101 888.345)"/></g></g></svg>