<svg id="Layer_1" enable-background="new 0 0 512 512" height="512" viewBox="0 0 512 512" width="512" xmlns="http://www.w3.org/2000/svg"><g><circle cx="256" cy="256" fill="#ffe65a" r="256"/><g><path d="m26.362 352.201h459.277v18.179h-459.277z" fill="#a56941"/><g><g><path d="m107.984 352.208-.231.231 148.128 148.128 148.129-148.128-.231-.231z" fill="#fffad7"/></g><g><path d="m243.521 352.208-62.19 62.19 12.591 12.592 74.781-74.782z" fill="#fd4755"/></g><g><path d="m289.026 352.208-84.943 84.943 12.591 12.591 97.534-97.534z" fill="#fd4755"/></g><g><path d="m334.116 352.208-106.762 106.762 12.591 12.591 119.353-119.353z" fill="#fd4755"/></g><g><path d="m152.812 352.208-16.836 16.836 12.592 12.591 29.427-29.427z" fill="#fd4755"/></g><g><path d="m197.902 352.208-38.655 38.655 12.592 12.591 51.246-51.246z" fill="#fd4755"/></g><g><path d="m379.073 352.208-123.192 123.177-122.946-122.946.231-.231h-25.182l-.231.231 148.128 148.128 148.366-148.359z" fill="#fd4755"/></g></g></g><g><path d="m150.906 1.333h27.904v62.022h-27.904z" fill="#a56941"/><path d="m150.906 1.333h8.648v62.022h-8.648z" fill="#965028"/><path d="m144.423 47.536h40.87v68.252h-40.87z" fill="#3d772a"/><path d="m144.423 47.536h10.807v68.252h-10.807z" fill="#336b21"/><path d="m216.883 352.22h-104.05c-8.943 0-16.192-7.249-16.192-16.192v-178.002c0-37.675 30.542-68.218 68.218-68.218 37.675 0 68.218 30.542 68.218 68.218v178.002c-.001 8.943-7.251 16.192-16.194 16.192z" fill="#3d772a"/><path d="m201.375 313.108h-73.033c-6.277 0-11.365-5.088-11.365-11.365v-124.94c0-26.444 21.437-47.882 47.882-47.882 26.444 0 47.882 21.437 47.882 47.882v124.94c-.001 6.277-5.089 11.365-11.366 11.365z" fill="#fff"/><path d="m127.968 301.743v-124.94c0-24.585 18.532-44.831 42.386-47.558-1.804-.206-3.636-.323-5.496-.323-26.444 0-47.882 21.437-47.882 47.882v124.94c0 6.277 5.088 11.365 11.365 11.365h10.992c-6.277-.001-11.365-5.089-11.365-11.366z" fill="#e1faff"/><path d="m133.267 341.958c-8.943 0-16.192-7.249-16.192-16.192v-178.003c0-22.571 10.969-42.574 27.86-54.991-27.955 8.525-48.295 34.51-48.295 65.254v178.002c0 8.943 7.249 16.192 16.192 16.192h104.051c6.847 0 12.689-4.257 15.056-10.263h-98.672z" fill="#336b21"/><path d="m137.402 33.598h54.911v23.218h-54.911z" fill="#336b21"/><path d="m137.402 33.598h13.504v23.218h-13.504z" fill="#2d631b"/></g><g><path d="m296.835 251.704c16.747 42 16.714 81.476 16.714 81.476s-27.187-28.621-43.934-70.622c-16.747-42-24.23-78.478-16.714-81.476s27.186 28.622 43.934 70.622z" fill="#97d729"/><path d="m269.614 262.558c16.747 42.001 43.934 70.622 43.934 70.622l-60.647-152.097c-7.517 2.997-.034 39.475 16.713 81.475z" fill="#82bd1c"/><path d="m345.737 271.01c-9.447 44.219-31.434 77.004-31.434 77.004s-6.671-38.907 2.776-83.126 23.52-78.694 31.434-77.004c7.913 1.691 6.671 38.908-2.776 83.126z" fill="#97d729"/><path d="m317.079 264.888c-9.447 44.219-2.776 83.126-2.776 83.126l34.209-160.129c-7.913-1.691-21.986 32.785-31.433 77.003z" fill="#82bd1c"/><path d="m427.892 346.042c-43.917 10.763-83.006 5.257-83.006 5.257s32.114-22.956 76.03-33.719 81.08-13.117 83.006-5.257-32.114 22.956-76.03 33.719z" fill="#97d729"/><path d="m420.916 317.58c-43.917 10.763-76.03 33.719-76.03 33.719l159.036-38.977c-1.926-7.859-39.089-5.505-83.006 5.258z" fill="#82bd1c"/><g><path d="m245.391 321.55c1.603-.233 2.988-.37 4.466-.502 1.456-.131 2.905-.231 4.354-.31 2.897-.171 5.787-.221 8.675-.227 5.774.021 11.536.34 17.259.979 11.436 1.288 22.761 3.792 33.486 7.926 5.362 2.046 10.594 4.445 15.545 7.331 4.957 2.858 9.732 6.043 14.089 9.73l1.655 1.351c.54.464 1.052.962 1.578 1.441l3.126 2.905c1.936 2.086 3.997 4.044 5.755 6.279 3.75 4.261 6.857 9.019 9.838 13.795-3.279-4.588-6.654-9.108-10.623-13.087-1.868-2.094-4.027-3.899-6.049-5.825l-3.244-2.657c-.545-.437-1.073-.892-1.63-1.312l-1.702-1.22c-4.474-3.332-9.312-6.135-14.282-8.601-4.962-2.493-10.157-4.491-15.442-6.137-10.567-3.333-21.586-5.051-32.609-5.599-5.515-.269-11.042-.229-16.538.095-2.747.178-5.49.397-8.209.729-1.36.159-2.716.339-4.059.545-1.321.199-2.731.436-3.906.684l-.049.01c-2.286.483-4.53-.978-5.013-3.264s.978-4.53 3.264-5.013c.084-.017.181-.033.265-.046z" fill="#d27350"/></g><g><ellipse cx="302.321" cy="361.045" fill="#554e56" rx="33.591" ry="24.442" transform="matrix(.779 -.627 .627 .779 -159.518 269.088)"/><path d="m323.115 369.791c-14.458 11.624-33.036 12.519-41.494 1.998-4.602-5.725-5.252-13.65-2.566-21.559-7.979 10.762-9.554 23.602-2.913 31.862 8.458 10.52 27.036 9.626 41.494-1.998 6.591-5.299 11.18-11.912 13.43-18.537-2.184 2.945-4.844 5.737-7.951 8.234z" fill="#433f43"/></g><g><ellipse cx="370.874" cy="371.666" fill="#554e56" rx="24.442" ry="33.591" transform="matrix(.627 -.779 .779 .627 -151.169 427.834)"/><path d="m350.08 380.412c14.458 11.624 33.036 12.519 41.494 1.998 4.603-5.725 5.252-13.65 2.566-21.559 7.979 10.762 9.554 23.602 2.913 31.862-8.458 10.52-27.036 9.626-41.494-1.998-6.591-5.299-11.18-11.912-13.43-18.537 2.184 2.946 4.845 5.737 7.951 8.234z" fill="#433f43"/></g></g></g></svg>