<svg id="Layer_1" enable-background="new 0 0 512 512" height="512" viewBox="0 0 512 512" width="512" xmlns="http://www.w3.org/2000/svg"><g><circle cx="256" cy="256" fill="#afe6ff" r="256"/><path d="m.302 432.835h511.698v44.547h-511.698z" fill="#a56941"/><path d="m.302 432.835h159.108v44.547h-159.108z" fill="#965028"/><g><path d="m433.744 432.835h-385.235c-23.981 0-43.422-19.441-43.422-43.422 0-23.981 19.441-43.422 43.422-43.422h385.236v86.844z" fill="#ffa50a"/><path d="m7.238 375.913c-1.39 4.25-2.151 8.785-2.151 13.5 0 23.981 19.441 43.422 43.422 43.422h385.236v-27h-385.236c-19.267 0-35.593-12.553-41.271-29.922z" fill="#d77d14"/></g><g fill="#d77d14"><path d="m165.423 346.228c0 18.919 3.019 34.255 6.744 34.255s6.744-15.337 6.744-34.255c0-.08-.001-.158-.001-.237h-13.485c-.001.079-.002.158-.002.237z"/><path d="m315.503 346.228c0 18.919 3.019 34.255 6.744 34.255s6.744-15.337 6.744-34.255c0-.08-.001-.158-.001-.237h-13.485c-.001.079-.002.158-.002.237z"/><path d="m265.476 346.228c0 18.919 3.019 34.255 6.744 34.255 3.724 0 6.744-15.337 6.744-34.255 0-.08-.001-.158-.001-.237h-13.485c-.001.079-.002.158-.002.237z"/><path d="m215.449 346.228c0 18.919 3.02 34.255 6.744 34.255s6.744-15.337 6.744-34.255c0-.08-.001-.158-.001-.237h-13.486c0 .079-.001.158-.001.237z"/><path d="m372.273 380.246c3.725 0 6.744-15.337 6.744-34.255h-13.488c0 18.919 3.02 34.255 6.744 34.255z"/><path d="m422.3 380.246c3.725 0 6.744-15.337 6.744-34.255h-13.488c0 18.919 3.019 34.255 6.744 34.255z"/><path d="m115.396 346.228c0 18.919 3.019 34.255 6.744 34.255s6.744-15.337 6.744-34.255c0-.08-.001-.158-.001-.237h-13.485c-.001.079-.002.158-.002.237z"/><path d="m65.369 346.228c0 18.919 3.019 34.255 6.744 34.255s6.744-15.337 6.744-34.255c0-.08-.001-.158-.001-.237h-13.485c-.001.079-.002.158-.002.237z"/></g><g><g><circle cx="164.519" cy="219.059" fill="#fff" r="92.957"/></g><g><path d="m214.056 50.371h53.305v184.999h-53.305z" fill="#fff" transform="matrix(-.707 -.707 .707 -.707 309.89 414.101)"/></g><g><path d="m299.933 46.541 37.104 37.104c2.475 2.475 2.475 6.489 0 8.964l-12.993 12.993c-2.475 2.475-6.489 2.475-8.964 0l-37.104-37.104c-2.475-2.475-2.475-6.489 0-8.964l12.993-12.993c2.475-2.475 6.488-2.475 8.964 0z" fill="#fff"/></g><g><path d="m130.33 173.475c-28.985-28.985-28.985-76.149 0-105.136 28.989-28.986 76.153-28.985 105.137 0l29.424 29.424-14.03 14.029-29.424-29.424c-21.248-21.248-55.825-21.251-77.077.001-21.25 21.25-21.25 55.827 0 77.078z" fill="#fff"/></g><g><path d="m257.341 214.097c.086 1.644.134 3.298.134 4.963 0 51.339-41.618 92.957-92.957 92.957s-92.957-41.618-92.957-92.957c0-1.665.048-3.319.134-4.963z" fill="#97d729"/></g><g><path d="m104.24 219.059c0-45.761 33.076-83.771 76.618-91.496-5.307-.942-10.761-1.461-16.339-1.461-51.339 0-92.957 41.618-92.957 92.957s41.618 92.957 92.957 92.957c5.578 0 11.032-.519 16.339-1.461-43.543-7.725-76.618-45.735-76.618-91.496z" fill="#e1faff"/></g><g><path d="m102.537 288.319c5.07 4.54 10.643 8.524 16.622 11.874 13.42 7.519 28.883 11.823 45.359 11.823 1.469 0 2.927-.043 4.379-.111.911-.044 1.815-.116 2.719-.186.472-.036.945-.065 1.415-.108 1.188-.111 2.369-.245 3.543-.4.137-.018.275-.034.411-.052 1.298-.177 2.587-.377 3.868-.604.001 0 .002 0 .003-.001-43.542-7.726-76.618-45.735-76.618-91.496 0-1.666.057-3.318.143-4.963h-32.685v.002c-.011.198-.015.398-.024.596-.067 1.447-.11 2.9-.11 4.364 0 4.813.366 9.541 1.071 14.156.47 3.077 1.091 6.105 1.855 9.075.382 1.485.8 2.956 1.253 4.411 4.527 14.554 12.534 27.574 23.047 38.088 1.214 1.217 2.47 2.387 3.749 3.532z" fill="#82bd1c"/></g><g><path d="m354.821 165.722c0 6.44-5.221 11.66-11.66 11.66s-11.66-5.221-11.66-11.66 11.66-27.999 11.66-27.999 11.66 21.56 11.66 27.999z" fill="#97d729"/></g></g><path d="m350.341 335.858h-78.121c-4.971 0-9 4.029-9 9s4.029 9 9 9h12.924c-1.268 1.551-2.03 3.532-2.03 5.691 0 4.971 4.029 9 9 9h3.148v11.934c0 4.971 4.029 9 9 9s9-4.029 9-9v-11.933h20.442c4.971 0 9-4.029 9-9 0-2.16-.762-4.14-2.03-5.691h9.667c4.971 0 9-4.029 9-9s-4.029-9.001-9-9.001z" fill="#97d729"/></g></svg>