<svg id="Layer_1" enable-background="new 0 0 512 512" height="512" viewBox="0 0 512 512" width="512" xmlns="http://www.w3.org/2000/svg"><g><circle cx="256" cy="256" fill="#ffe65a" r="256"/><g><path d="m56.514 69.278h389.053v389.053h-389.053z" fill="#73c8f0"/><path d="m56.514 69.278h32.772v389.053h-32.772z" fill="#0091c8"/><path d="m56.514 432.14h389.053v26.191h-389.053z" fill="#55879b"/><path d="m56.513 432.14h32.772v26.191h-32.772z" fill="#46738c"/><path d="m89.285 61.779h323.51v67.155h-323.51z" fill="#afe6ff"/><path d="m89.285 61.779h47.531v67.155h-47.531z" fill="#d1f1ff"/><path d="m89.285 50.361h323.51v11.418h-323.51z" fill="#55879b"/><path d="m89.285 50.361h67.611v11.418h-67.611z" fill="#46738c"/><g><path d="m380.46 394.695h-258.839c-10.5 0-19.011-8.512-19.011-19.011v-192.224c0-10.5 8.512-19.011 19.011-19.011h258.839c10.5 0 19.011 8.512 19.011 19.011v192.223c0 10.5-8.512 19.012-19.011 19.012z" fill="#55879b"/><path d="m149.684 375.683v-192.223c0-10.5 8.512-19.011 19.011-19.011h-47.074c-10.5 0-19.011 8.512-19.011 19.011v192.223c0 10.5 8.512 19.011 19.011 19.011h47.074c-10.5.001-19.011-8.511-19.011-19.011z" fill="#46738c"/><g><path d="m385.002 177.811c1.255 0 2.276 1.021 2.276 2.276v198.97c0 1.255-1.021 2.276-2.276 2.276h-267.924c-1.255 0-2.276-1.021-2.276-2.276v-198.97c0-1.255 1.021-2.276 2.276-2.276zm0-17.403h-267.924c-10.868 0-19.678 8.81-19.678 19.678v198.97c0 10.868 8.81 19.678 19.678 19.678h267.924c10.868 0 19.678-8.81 19.678-19.678v-198.97c0-10.867-8.81-19.678-19.678-19.678z" fill="#afe6ff"/></g><g><g><path d="m109.804 309.652h291.656" fill="none" stroke="#afe6ff" stroke-miterlimit="10" stroke-width="13.378"/><g fill="#afe6ff"><circle cx="117.605" cy="309.652" r="10.758"/><circle cx="161.559" cy="309.652" r="10.758"/><circle cx="205.514" cy="309.652" r="10.758"/><circle cx="249.468" cy="309.652" r="10.758"/><circle cx="293.422" cy="309.652" r="10.758"/><circle cx="337.376" cy="309.652" r="10.758"/><circle cx="381.33" cy="309.652" r="10.758"/></g></g><path d="m362.521 303.822h-226.82c-5.825 0-10.547-4.722-10.547-10.547 0-5.825 4.722-10.547 10.547-10.547h226.82c5.825 0 10.547 4.722 10.547 10.547 0 5.825-4.722 10.547-10.547 10.547z" fill="#f6a96c"/><path d="m169.302 293.275c0-5.825 4.722-10.547 10.547-10.547h-44.147c-5.825 0-10.547 4.722-10.547 10.547 0 5.825 4.722 10.547 10.547 10.547h44.147c-5.825 0-10.547-4.722-10.547-10.547z" fill="#e6975a"/><path d="m362.521 282.728h-229.157c0-5.647 4.577-10.224 10.224-10.224h208.71c5.646 0 10.223 4.578 10.223 10.224z" fill="#fd4755"/><g fill="#fac855"><path d="m345.198 272.504h-30.127c0-3.984 3.23-7.214 7.214-7.214h15.7c3.983.001 7.213 3.231 7.213 7.214z"/><path d="m214.506 272.504c0-3.984-3.23-7.214-7.213-7.214h-54.313c-3.984 0-7.213 3.23-7.213 7.214h39.431c2.751 0 4.982 2.23 4.982 4.982v4.742c0 1.628 1.171 3.111 2.791 3.273 1.863.186 3.433-1.271 3.433-3.096v-4.919c0-2.751 2.23-4.982 4.982-4.982z"/><path d="m300.644 272.504c0-3.984-3.23-7.214-7.214-7.214h-53.889c-3.984 0-7.214 3.23-7.214 7.214h46.605c2.061 0 3.731 1.67 3.731 3.731v1.74c0 1.632 1.174 3.119 2.798 3.282 1.868.187 3.442-1.275 3.442-3.104v-1.918c0-2.061 1.67-3.731 3.731-3.731z"/></g></g></g><g><path d="m286.662 74.548h96.773v40.216h-96.773z" fill="#55879b"/><path d="m286.662 74.548h15.75v40.216h-15.75z" fill="#46738c"/></g><g><g><circle cx="214.193" cy="94.656" fill="#55879b" r="23.705"/></g><g><path d="m199.496 94.656c0-11.551 8.265-21.16 19.201-23.265-1.459-.281-2.962-.44-4.504-.44-13.092 0-23.705 10.613-23.705 23.705s10.613 23.705 23.705 23.705c1.541 0 3.044-.159 4.504-.44-10.936-2.105-19.201-11.715-19.201-23.265z" fill="#46738c"/></g><g><path d="m186.735 90.903h54.916v7.506h-54.916z" fill="#46738c"/></g></g><g><g><circle cx="137.629" cy="94.656" fill="#55879b" r="23.705"/></g><g><path d="m122.931 94.656c0-11.551 8.265-21.16 19.201-23.265-1.459-.281-2.962-.44-4.504-.44-13.092 0-23.705 10.613-23.705 23.705s10.613 23.705 23.705 23.705c1.541 0 3.044-.159 4.504-.44-10.935-2.105-19.201-11.715-19.201-23.265z" fill="#46738c"/></g><g><path d="m110.171 90.903h54.916v7.506h-54.916z" fill="#46738c"/></g></g></g></g></svg>