<svg id="Layer_1" enable-background="new 0 0 512 512" height="512" viewBox="0 0 512 512" width="512" xmlns="http://www.w3.org/2000/svg"><g><circle cx="256" cy="256" fill="#55c7a6" r="256"/><path d="m24.541 365.481h462.917c6.444-13.599 11.719-27.857 15.709-42.645h-494.334c3.989 14.788 9.264 29.046 15.708 42.645z" fill="#965028"/><g><g><path d="m53.91 322.858-.315.315 176.36 176.36c14.385 14.385 37.707 14.385 52.091 0l176.36-176.36-.315-.315z" fill="#fffad7"/></g><g><path d="m239.11 322.858-84.978 84.978 17.205 17.205 102.183-102.183z" fill="#ffe65a"/></g><g><path d="m301.29 322.858-116.068 116.068 17.205 17.204 133.272-133.272z" fill="#ffe65a"/></g><g><path d="m362.901 322.858-145.881 145.881 17.205 17.205 163.086-163.086z" fill="#ffe65a"/></g><g><path d="m115.164 322.858-23.005 23.005 17.205 17.205 40.21-40.21z" fill="#ffe65a"/></g><g><path d="m176.776 322.858-52.819 52.819 17.205 17.205 70.024-70.024z" fill="#ffe65a"/></g><g><path d="m423.681 322.858.315.315-167.996 167.996-167.996-167.996.315-.315h-34.41l-.315.315 177.004 177.004c14.029 14.029 36.775 14.029 50.804 0l177.004-177.004-.315-.315z" fill="#ffe65a"/></g></g><g><path d="m156.522 9.815c-61.02 0-110.487 27.618-110.487 61.686 0 11.899 6.041 23.01 16.495 32.433-9.676 3.971-16.495 13.475-16.495 24.582v172.714c0 11.978 9.71 21.688 21.688 21.688h88.799 110.487 87.737v-313.103z" fill="#a56941"/><path d="m109.904 103.935c-10.454-9.424-16.495-20.534-16.495-32.434 0-29.528 37.164-54.206 86.8-60.261-7.632-.931-15.555-1.426-23.687-1.426-61.02 0-110.487 27.618-110.487 61.686 0 11.899 6.041 23.01 16.495 32.433-9.676 3.971-16.495 13.475-16.495 24.582v172.715c0 11.978 9.71 21.688 21.688 21.688h25.686v-194.402c0-11.106 6.819-20.61 16.495-24.581z" fill="#9c5f36"/><path d="m448.738 103.935c10.454-9.424 16.495-20.534 16.495-32.433 0-34.068-49.467-61.686-110.487-61.686s-110.488 27.617-110.488 61.685c0 11.899 6.041 23.01 16.495 32.433-9.676 3.971-16.495 13.475-16.495 24.582v194.402h199.286c11.978 0 21.688-9.71 21.688-21.688v-172.714c.001-11.106-6.819-20.61-16.494-24.581z" fill="#f6a96c"/><path d="m288.181 103.935c-10.454-9.424-16.495-20.534-16.495-32.433 0-31.476 42.225-57.443 96.774-61.214-4.494-.311-9.069-.473-13.714-.473-61.02 0-110.487 27.618-110.487 61.686 0 11.899 6.041 23.01 16.495 32.433-9.676 3.971-16.495 13.475-16.495 24.582v194.402h27.427v-194.402c0-11.106 6.819-20.61 16.495-24.581z" fill="#e6975a"/><g><path d="m354.745 31.009c54.544 0 99.851 22.067 108.855 51.083 1.067-3.441 1.632-6.978 1.632-10.59 0-34.068-49.467-61.686-110.487-61.686s-110.487 27.617-110.487 61.685c0 3.612.565 7.149 1.632 10.59 9.005-29.015 54.312-51.082 108.855-51.082z" fill="#965028"/></g><g><path d="m156.522 9.815c-61.02 0-110.487 27.618-110.487 61.686 0 3.391.507 6.715 1.45 9.956 8.552-29.317 54.11-51.696 109.037-51.696h198.224v-19.946z" fill="#965028"/></g></g></g></svg>