<svg id="Layer_1" enable-background="new 0 0 512 512" height="512" viewBox="0 0 512 512" width="512" xmlns="http://www.w3.org/2000/svg"><g><path d="m512 256c0 48.987-13.759 94.76-37.624 133.665l-217.488 55.042-219.255-55.026c-23.87-38.909-37.633-84.688-37.633-133.681 0-141.385 114.615-256 256-256s256 114.615 256 256z" fill="#ffe65a"/><path d="m37.647 389.682c45.015 73.371 125.964 122.318 218.353 122.318s173.338-48.947 218.353-122.318z" fill="#965028"/><path d="m474.353 389.682h-436.706c8.098 13.198 17.36 25.602 27.641 37.076h381.424c10.281-11.475 19.544-23.878 27.641-37.076z" fill="#a56941"/><g><path d="m84.247 295.924h340.526v43.065h-340.526z" fill="#a56941"/><path d="m84.247 295.924h74.323v43.065h-74.323z" fill="#9c5f36"/><g><path d="m97.052 355.082h317.896v34.617h-317.896z" fill="#afe6ff"/><path d="m97.052 355.082h81.543v34.617h-81.543z" fill="#73c8f0"/><path d="m422.199 373.061h-332.398c-19.859 0-35.958-16.099-35.958-35.958h404.314c0 19.859-16.099 35.958-35.958 35.958z" fill="#fff"/><path d="m114.297 337.103h-60.454c0 19.859 16.099 35.958 35.958 35.958h60.454c-19.859 0-35.958-16.099-35.958-35.958z" fill="#afe6ff"/></g><path d="m97.052 274.21h311.562v21.714h-311.562z" fill="#fd4755"/><path d="m97.052 274.21h82.859v21.714h-82.859z" fill="#e33442"/><path d="m84.247 231.145h340.526v43.065h-340.526z" fill="#a56941"/><path d="m84.247 231.145h74.323v43.065h-74.323z" fill="#9c5f36"/><path d="m97.052 209.43h311.562v21.714h-311.562z" fill="#fd4755"/><path d="m97.052 209.43h82.859v21.714h-82.859z" fill="#e33442"/><path d="m84.247 166.365h340.526v43.065h-340.526z" fill="#a56941"/><path d="m84.247 166.365h74.323v43.065h-74.323z" fill="#9c5f36"/><path d="m206.528 255.688c-4.201 0-7.607-3.406-7.607-7.607v-27.794h15.214v27.794c0 4.201-3.406 7.607-7.607 7.607z" fill="#fd4755"/><path d="m263.181 324.483c-3.966 0-7.181-3.215-7.181-7.181v-27.217h14.362v27.217c0 3.966-3.215 7.181-7.181 7.181z" fill="#fd4755"/><path d="m394.706 144.651h-283.746c-7.681 0-13.908 6.227-13.908 13.908v7.726.001.001.079h.006c.125 7.49 17.734 13.548 39.444 13.548 12.823 0 24.212-2.114 31.414-5.388 4.086-1.857 8.727-1.845 12.798.046 7.187 3.339 18.69 5.502 31.661 5.502 13.4 0 25.237-2.308 32.364-5.836 4.139-2.049 9.023-2.049 13.162 0 7.128 3.528 18.965 5.837 32.365 5.837 4.466 0 8.757-.257 12.759-.73 5.056-.597 9.495 3.347 9.495 8.438v57.302c0 5.461 4.121 10.229 9.571 10.582 5.972.387 10.935-4.343 10.935-10.231v-42.35c0-5.4 5.326-9.07 10.438-7.33.06.02.12.041.18.061 3.22 1.077 5.437 4.031 5.437 7.426v12.757c0 4.404 3.323 8.25 7.718 8.534 4.816.312 8.82-3.502 8.82-8.251v-28.026c0-4.646 3.52-8.525 8.144-8.985 12.477-1.24 34.852-4.668 34.847-12.908h.006v-7.806c-.002-7.68-6.229-13.907-13.91-13.907z" fill="#fffad7"/><g><path d="m243.084 117.549v-8.708c0-29.435-23.862-53.297-53.297-53.297s-53.296 23.862-53.296 53.297v8.708c-4.844 2.269-8.208 7.174-8.208 12.876 0 7.857 6.369 14.226 14.226 14.226h94.557c7.857 0 14.226-6.369 14.226-14.226 0-5.703-3.363-10.608-8.208-12.876z" fill="#ffaac1"/><path d="m142.882 130.425c0-5.703 3.363-10.608 8.208-12.876v-8.708c0-26.957 20.018-49.226 45.997-52.786-2.388-.327-4.822-.51-7.299-.51-29.435 0-53.297 23.862-53.297 53.297v8.708c-4.844 2.269-8.208 7.174-8.208 12.876 0 7.857 6.369 14.226 14.226 14.226h14.599c-7.857-.001-14.226-6.37-14.226-14.227z" fill="#f582a0"/></g><g><path d="m335.08 113.999c-25.569 25.568-71.554 21.038-71.554 21.038s-4.531-45.986 21.038-71.554 71.554-21.038 71.554-21.038 4.53 45.986-21.038 71.554z" fill="#82bd1c"/><path d="m356.117 42.445-92.592 92.592s45.986 4.531 71.554-21.038 21.038-71.554 21.038-71.554z" fill="#97d729"/></g><g><path d="m333.204 171.115c-27.908 0-50.532-27.569-50.532-27.569s22.624-27.569 50.532-27.569 50.532 27.569 50.532 27.569-22.624 27.569-50.532 27.569z" fill="#82bd1c"/><path d="m383.735 143.546h-101.063s22.624 27.569 50.532 27.569 50.531-27.569 50.531-27.569z" fill="#97d729"/></g></g></g></svg>