<svg id="Layer_1" enable-background="new 0 0 512 512" height="512" viewBox="0 0 512 512" width="512" xmlns="http://www.w3.org/2000/svg"><g><circle cx="256" cy="256" fill="#afe6ff" r="256"/><g><path d="m371.497 338.844h29.108v120.054h-29.108z" fill="#433f43" transform="matrix(.707 -.707 .707 .707 -168.973 389.806)"/><path d="m354.503 387.906c3.711-3.063 7.315-6.324 10.787-9.796s6.732-7.076 9.796-10.787l-21.189-21.189-20.582 20.582z" fill="#333033"/><path d="m382.747 428.54 58.727 58.727c9.105 9.105 23.868 9.105 32.973 0 9.105-9.105 9.105-23.868 0-32.973l-58.727-58.727zm80.738 48.978c-8.896 8.896-22.685-4.922-13.803-13.803 8.896-8.897 22.685 4.921 13.803 13.803z" fill="#fd4755"/><path d="m463.791 493.354-72.929-72.929-8.115 8.115 58.727 58.727c6.049 6.049 14.593 8.075 22.317 6.087z" fill="#e33442"/><circle cx="218.751" cy="231.572" fill="#433f43" r="182.406"/><path d="m103.506 346.817c-68.93-68.93-71.156-179.3-6.685-250.911-2.394 2.155-4.746 4.381-7.05 6.685-71.234 71.234-71.234 186.727 0 257.961s186.727 71.234 257.961 0c2.304-2.304 4.53-4.657 6.685-7.05-71.611 64.471-181.981 62.245-250.911-6.685z" fill="#333033"/><circle cx="218.751" cy="231.572" fill="#554e56" r="135.017"/><circle cx="218.751" cy="231.572" fill="#fd4755" r="28.176"/><g><path d="m187.909 201.062c-11.995-10.678-30.418-10.742-42.481-.141-3.837 3.372-6.666 7.418-8.488 11.786-3.554 8.518-10.265 15.34-18.691 19.106-5.287 2.363-10.178 5.899-14.277 10.611-13.317 15.307-13.345 38.458-.059 53.792 7.614 8.788 17.972 13.512 28.539 14.176 9.696.609 19.037 3.994 26.384 10.351.366.316.737.629 1.115.937 18.508 15.117 45.636 14.667 63.655-1.029 21.864-19.045 22.719-52.251 2.566-72.404-2.691-2.691-5.616-5.007-8.708-6.947-9.489-5.953-16.887-14.816-20.131-25.538-1.652-5.466-4.794-10.578-9.424-14.7z" fill="#fff"/><circle cx="172.944" cy="273.51" fill="#ffe65a" r="28.437"/><path d="m159.812 286.642c-9.915-9.915-10.97-25.326-3.18-36.42-1.332.935-2.605 1.99-3.795 3.18-11.105 11.105-11.105 29.11 0 40.216 11.105 11.105 29.11 11.105 40.216 0 1.19-1.19 2.245-2.464 3.18-3.795-11.095 7.789-26.506 6.734-36.421-3.181z" fill="#fed402"/><path d="m298.016 130.783c-27.692-27.692-67.55-32.731-89.025-11.256s-16.436 61.333 11.256 89.025c4.784 4.784 9.932 8.891 15.285 12.302 14.705 9.37 27.406 21.462 38.518 34.9 1.449 1.753 3.005 3.465 4.665 5.125 20.268 20.268 48.38 25.015 62.791 10.604s9.663-42.524-10.604-62.791c-.033-.033-.065-.065-.098-.097-5.528-5.507-8.58-12.993-8.274-20.791.744-18.937-7.71-40.217-24.514-57.021z" fill="#fff"/><circle cx="265.208" cy="166.612" fill="#ffe65a" r="28.437"/><path d="m252.076 179.745c-9.915-9.915-10.97-25.326-3.18-36.42-1.332.935-2.605 1.99-3.795 3.18-11.105 11.105-11.105 29.11 0 40.216 11.105 11.105 29.11 11.105 40.216 0 1.19-1.19 2.245-2.464 3.18-3.795-11.095 7.789-26.506 6.734-36.421-3.181z" fill="#fed402"/></g><g><path d="m218.751 50.74c23.489 0 46.384 4.455 68.05 13.241 22.428 9.095 42.554 22.46 59.817 39.724 17.264 17.264 30.629 37.389 39.724 59.817 8.786 21.666 13.241 44.561 13.241 68.05s-4.455 46.384-13.241 68.05c-9.095 22.428-22.46 42.554-39.724 59.817-17.264 17.264-37.389 30.628-59.817 39.724-21.666 8.786-44.561 13.241-68.05 13.241s-46.384-4.455-68.05-13.241c-22.428-9.095-42.554-22.46-59.817-39.724-17.264-17.264-30.628-37.389-39.724-59.817-8.786-21.666-13.241-44.561-13.241-68.05s4.455-46.384 13.241-68.05c9.095-22.428 22.46-42.554 39.724-59.817 17.264-17.264 37.389-30.629 59.817-39.724 21.667-8.786 44.562-13.241 68.05-13.241m0-5.214c-47.613 0-95.226 18.164-131.554 54.491-72.655 72.655-72.655 190.452 0 263.107 36.328 36.328 83.941 54.491 131.554 54.491s95.226-18.164 131.554-54.491c72.655-72.655 72.655-190.452 0-263.107-36.328-36.327-83.941-54.491-131.554-54.491z" fill="#82878c"/></g></g></g></svg>