<svg id="Layer_1" enable-background="new 0 0 512 512" height="512" viewBox="0 0 512 512" width="512" xmlns="http://www.w3.org/2000/svg"><g><circle cx="256" cy="256" fill="#55c7a6" r="256"/><g><path d="m392.342 10.837 7.197 4.719 8.592-.489c13.82-.786 26.789 6.702 33.019 19.063l3.873 7.685 7.685 3.873c12.361 6.229 19.849 19.199 19.063 33.019l-.489 8.592 4.719 7.197c7.59 11.576 7.59 26.551 0 38.127l-4.719 7.197.489 8.592c.786 13.82-6.702 26.789-19.063 33.019l-7.685 3.873-3.873 7.685c-6.229 12.361-19.199 19.849-33.019 19.063l-8.592-.489-7.197 4.719c-11.576 7.59-26.551 7.59-38.127 0l-7.197-4.719-8.592.489c-13.82.786-26.789-6.702-33.019-19.063l-3.873-7.685-7.685-3.873c-12.361-6.229-19.849-19.199-19.063-33.019l.488-8.592-4.719-7.197c-7.59-11.576-7.59-26.551 0-38.127l4.719-7.197-.488-8.592c-.786-13.82 6.702-26.789 19.063-33.019l7.685-3.873 3.873-7.685c6.229-12.361 19.199-19.849 33.019-19.063l8.592.489 7.197-4.719c11.576-7.59 26.551-7.59 38.127 0z" fill="#ef8c3d"/><path d="m460.891 51.427c-2.4-2.261-5.142-4.205-8.183-5.737l-3.719-1.874v22.964h-28.929v-28.93h22.963l-1.874-3.718c-1.533-3.041-3.477-5.783-5.738-8.184h-15.351v-9.463c-3.792-1.135-7.806-1.647-11.902-1.417v10.88h-28.929v-20.269c-3.939-.684-7.963-.684-11.902 0v20.269h-28.929v-10.88c-4.095-.23-8.11.282-11.902 1.417v9.463h-15.352c-2.261 2.401-4.205 5.143-5.738 8.184l-1.874 3.718h22.963v28.93h-28.929v-22.964l-3.719 1.874c-3.041 1.533-5.783 3.477-8.183 5.737v15.353h-9.464c-1.135 3.792-1.646 7.807-1.417 11.902h10.881v28.929h-20.27c-.684 3.939-.684 7.963 0 11.902h20.269v28.929h-10.881c-.229 4.095.282 8.11 1.417 11.902h9.464v15.352c2.4 2.26 5.142 4.205 8.183 5.737l3.719 1.874v-22.963h28.929v28.929h-22.963l1.874 3.718c1.533 3.041 3.477 5.783 5.738 8.184h15.352v9.463c3.792 1.135 7.807 1.647 11.902 1.417v-10.88h28.929v20.269c3.939.684 7.963.684 11.902 0v-20.269h28.929v10.88c4.095.23 8.11-.282 11.902-1.417v-9.463h15.352c2.261-2.4 4.205-5.143 5.738-8.184l1.874-3.718h-22.963v-28.929h28.929v22.963l3.719-1.874c3.041-1.532 5.783-3.477 8.183-5.737v-15.352h9.464c1.135-3.792 1.647-7.806 1.417-11.902h-10.881v-28.929h20.269c.684-3.939.684-7.963 0-11.902h-20.27v-28.93h10.881c.23-4.095-.282-8.11-1.417-11.902h-9.464v-15.352zm-134.394 97.014h-28.929v-28.929h28.929zm0-40.831h-28.929v-28.929h28.929zm40.831 81.662h-28.929v-28.929h28.929zm0-40.831h-28.929v-28.929h28.929zm0-40.831h-28.929v-28.929h28.929zm0-40.83h-28.929v-28.93h28.929zm40.83 122.492h-28.929v-28.929h28.929zm0-40.831h-28.929v-28.929h28.929zm0-40.831h-28.929v-28.929h28.929zm0-40.83h-28.929v-28.93h28.929zm40.831 81.661h-28.929v-28.929h28.929zm0-40.831h-28.929v-28.929h28.929z" fill="#dc6a2f"/><path d="m373.278 14.401c4.983 0 9.82 1.444 13.987 4.177l7.197 4.719 2.553 1.674 3.048-.173 8.592-.488c.483-.028.973-.041 1.456-.041 9.685 0 18.41 5.376 22.77 14.029l3.873 7.685 1.374 2.727 2.727 1.374 7.686 3.873c9.074 4.573 14.564 14.082 13.987 24.226l-.489 8.592-.173 3.048 1.674 2.553 4.719 7.197c5.572 8.497 5.572 19.477 0 27.974l-4.719 7.197-1.674 2.553.173 3.048.489 8.592c.577 10.144-4.914 19.654-13.987 24.227l-7.685 3.873-2.727 1.374-1.374 2.727-3.873 7.685c-4.361 8.653-13.086 14.029-22.77 14.029-.483 0-.973-.014-1.456-.041l-8.592-.488-3.048-.173-2.553 1.674-7.197 4.719c-4.167 2.733-9.004 4.177-13.987 4.177s-9.82-1.444-13.987-4.177l-7.197-4.719-2.553-1.674-3.048.173-8.592.488c-.483.028-.973.041-1.456.041-9.685 0-18.41-5.376-22.77-14.029l-3.873-7.685-1.374-2.727-2.727-1.374-7.685-3.873c-9.074-4.573-14.564-14.082-13.987-24.227l.489-8.592.173-3.048-1.674-2.553-4.719-7.197c-5.572-8.497-5.572-19.478 0-27.974l4.719-7.197 1.674-2.553-.173-3.048-.489-8.592c-.577-10.144 4.913-19.654 13.987-24.226l7.685-3.873 2.726-1.374 1.374-2.727 3.873-7.685c4.361-8.653 13.086-14.029 22.77-14.029.483 0 .973.014 1.456.041l8.592.488 3.048.173 2.553-1.674 7.197-4.719c4.167-2.732 9.004-4.177 13.987-4.177m0-9.257c-6.638 0-13.276 1.898-19.063 5.693l-7.197 4.719-8.592-.488c-.663-.038-1.323-.056-1.982-.056-13.066 0-25.106 7.351-31.037 19.12l-3.873 7.685-7.685 3.873c-12.361 6.229-19.849 19.198-19.064 33.018l.488 8.592-4.719 7.197c-7.59 11.576-7.59 26.551 0 38.127l4.719 7.197-.488 8.592c-.786 13.82 6.702 26.789 19.063 33.019l7.685 3.873 3.873 7.685c5.931 11.769 17.97 19.12 31.037 19.12.658 0 1.32-.019 1.982-.056l8.592-.488 7.197 4.719c5.788 3.795 12.426 5.693 19.063 5.693 6.638 0 13.276-1.898 19.063-5.693l7.197-4.719 8.592.488c.663.038 1.323.056 1.982.056 13.066 0 25.106-7.351 31.037-19.12l3.873-7.685 7.685-3.873c12.361-6.23 19.849-19.199 19.063-33.019l-.489-8.592 4.719-7.197c7.59-11.576 7.59-26.551 0-38.127l-4.719-7.197.489-8.592c.786-13.82-6.702-26.789-19.063-33.018l-7.685-3.873-3.873-7.685c-5.931-11.769-17.97-19.12-31.037-19.12-.658 0-1.319.019-1.982.056l-8.592.488-7.197-4.719c-5.786-3.795-12.424-5.693-19.062-5.693z" fill="#ef8c3d"/></g><g><g><path d="m312.221 140.207v-10.243c0-34.625-28.069-62.694-62.694-62.694s-62.694 28.069-62.694 62.694v10.243c-5.698 2.669-9.655 8.438-9.655 15.147 0 9.242 7.492 16.734 16.734 16.734h111.229c9.242 0 16.734-7.492 16.734-16.734.001-6.709-3.956-12.479-9.654-15.147z" fill="#fff"/><path d="m194.351 155.353c0-6.708 3.956-12.478 9.655-15.147v-10.243c0-31.71 23.547-57.906 54.107-62.094-2.809-.385-5.672-.6-8.586-.6-34.625 0-62.694 28.069-62.694 62.694v10.243c-5.698 2.669-9.655 8.438-9.655 15.147 0 9.242 7.492 16.734 16.734 16.734h17.173c-9.242 0-16.734-7.492-16.734-16.734z" fill="#ffebb4"/></g><path d="m312.728 480.117c-4.59-8.492-14.602-15.683-27.805-20.344-9.16-3.233-14.88-12.349-13.64-21.983l10.693-83.096h-64.899l10.693 83.096c1.24 9.634-4.481 18.749-13.64 21.983-13.203 4.661-23.214 11.852-27.805 20.344-2.567 4.749 1.067 10.512 6.466 10.512h113.472c5.399-.001 9.033-5.763 6.465-10.512z" fill="#e33442"/><path d="m202.272 480.117c4.59-8.492 14.602-15.683 27.805-20.344 9.16-3.233 14.88-12.349 13.64-21.983l-10.693-83.096h-15.946l10.693 83.096c1.24 9.634-4.481 18.75-13.64 21.983-13.203 4.661-23.214 11.852-27.805 20.344-2.567 4.749 1.067 10.512 6.466 10.512h15.946c-5.399-.001-9.034-5.763-6.466-10.512z" fill="#ce293d"/><g><path d="m249.234 192.615v-10.243c0-34.625-28.069-62.694-62.694-62.694s-62.694 28.069-62.694 62.694v10.243c-5.698 2.669-9.655 8.438-9.655 15.147 0 9.242 7.492 16.734 16.734 16.734h111.229c9.242 0 16.734-7.492 16.734-16.734.001-6.708-3.956-12.478-9.654-15.147z" fill="#827ddc"/><path d="m131.364 207.762c0-6.708 3.956-12.478 9.655-15.147v-10.243c0-31.71 23.547-57.906 54.107-62.094-2.809-.385-5.672-.6-8.586-.6-34.625 0-62.694 28.069-62.694 62.694v10.243c-5.698 2.669-9.655 8.438-9.655 15.147 0 9.242 7.492 16.734 16.734 16.734h17.173c-9.242 0-16.734-7.492-16.734-16.734z" fill="#6e64c3"/></g><g><path d="m372.442 192.615v-10.243c0-34.625-28.069-62.694-62.694-62.694s-62.694 28.069-62.694 62.694v10.243c-5.698 2.669-9.655 8.438-9.655 15.147 0 9.242 7.492 16.734 16.734 16.734h111.229c9.242 0 16.734-7.492 16.734-16.734.001-6.708-3.955-12.478-9.654-15.147z" fill="#ffaac1"/><path d="m254.573 207.762c0-6.708 3.956-12.478 9.655-15.147v-10.243c0-31.71 23.547-57.906 54.107-62.094-2.809-.385-5.672-.6-8.586-.6-34.625 0-62.694 28.069-62.694 62.694v10.243c-5.698 2.669-9.655 8.438-9.655 15.147 0 9.242 7.492 16.734 16.734 16.734h17.173c-9.242 0-16.734-7.492-16.734-16.734z" fill="#f582a0"/></g><path d="m100.927 240.57c0 90.98 66.53 164.734 148.6 164.734s148.6-73.754 148.6-164.734z" fill="#fd4755"/><path d="m151.219 240.57h-50.292c0 90.98 66.53 164.734 148.6 164.734 8.572 0 16.971-.815 25.146-2.36-70.093-13.245-123.454-80.896-123.454-162.374z" fill="#e33442"/><path d="m397.182 219.774h-294.016c-6.636 0-12.015 5.379-12.015 12.015v8.782h.029c-.01.193-.029.384-.029.578 0 11.911 19.049 21.567 42.547 21.567 17.298 0 32.174-5.236 38.826-12.749 6.651 7.513 21.527 12.749 38.825 12.749s32.174-5.236 38.826-12.749c6.652 7.513 21.528 12.749 38.826 12.749s32.174-5.236 38.826-12.749c6.652 7.513 21.528 12.749 38.826 12.749 23.498 0 42.547-9.656 42.547-21.567 0-.194-.019-.385-.029-.578h.029v-8.782c-.003-6.636-5.383-12.015-12.018-12.015z" fill="#fff"/><g><path d="m134.111 240.57h-.029v-8.782c0-6.636 5.379-12.015 12.015-12.015h-42.932c-6.636 0-12.015 5.379-12.015 12.015v9.359c0 11.911 19.049 21.567 42.547 21.567 7.83 0 15.153-1.081 21.453-2.952-9.561-2.84-21.554-9.3-21.039-19.192z" fill="#d6f2ff"/></g></g></g></svg>