<svg id="Layer_1" enable-background="new 0 0 512 512" height="512" viewBox="0 0 512 512" width="512" xmlns="http://www.w3.org/2000/svg"><g><ellipse cx="255.538" cy="256" fill="#ffaac1" rx="255.538" ry="256"/><g><path d="m442.059 301.988c-22.679-22.917-38.397-51.732-46.6-82.939-18.648-70.941-68.862-121.755-127.887-121.755-74.919 0-135.652 81.858-135.652 182.834 0 94.133 52.699 170.538 118.81 181.562 26.921 4.489 52.662 14.828 74.993 30.545 14.983 10.545 32.508 16.605 51.237 16.605 55.206 0 99.96-52.655 99.96-117.609.001-35.696-13.518-67.676-34.861-89.243z" fill="#ffebb4"/><g><path d="m161.592 287.946c0-100.977 60.734-182.834 135.652-182.834 3.749 0 7.462.207 11.134.609-12.879-5.469-26.585-8.426-40.806-8.426-74.919 0-135.652 81.858-135.652 182.834 0 94.133 52.699 170.538 118.811 181.562 2.39.399 4.768.86 7.138 1.35-55.158-22.643-96.277-91.948-96.277-175.095z" fill="#f0d897"/></g><g><path d="m454.926 225.08h-380.505c-19.373 0-35.078-15.705-35.078-35.078v-.063c0-19.373 15.705-35.078 35.078-35.078h380.505c19.373 0 35.078 15.705 35.078 35.078v.063c.001 19.373-15.705 35.078-35.078 35.078z" fill="#ef8c3d"/><path d="m91.561 189.97c0-19.391 15.691-35.11 35.047-35.11h-52.219c-19.356 0-35.047 15.719-35.047 35.11 0 19.391 15.691 35.11 35.047 35.11h52.219c-19.356 0-35.047-15.719-35.047-35.11z" fill="#dc6a2f"/><ellipse cx="33.018" cy="190.439" fill="#dc6a2f" rx="15.101" ry="15.129"/><ellipse cx="496.899" cy="188.045" fill="#ef8c3d" rx="15.101" ry="15.129"/></g></g></g></svg>