<svg id="Layer_1" enable-background="new 0 0 512 512" height="512" viewBox="0 0 512 512" width="512" xmlns="http://www.w3.org/2000/svg"><g><circle cx="256" cy="256" fill="#97d729" r="256"/><g><path d="m475.72 248.643h-440.905c-8.51 0-15.409-6.899-15.409-15.409v-118.105c0-27.211 22.059-49.269 49.269-49.269h373.184c27.211 0 49.269 22.059 49.269 49.269v118.105c0 8.51-6.898 15.409-15.408 15.409z" fill="#ef8c3d"/><path d="m65.221 233.234v-118.105c0-27.211 22.059-49.269 49.269-49.269h-45.815c-27.211 0-49.269 22.059-49.269 49.269v118.105c0 8.51 6.899 15.409 15.409 15.409h45.815c-8.51 0-15.409-6.899-15.409-15.409z" fill="#dc6a2f"/><g><path d="m441.859 83.944c17.195 0 31.184 13.989 31.184 31.184v115.429h-435.552v-115.428c0-17.195 13.989-31.184 31.184-31.184h373.184m0-18.086h-373.184c-27.211 0-49.269 22.059-49.269 49.269v118.105c0 8.51 6.899 15.409 15.409 15.409h440.905c8.51 0 15.409-6.899 15.409-15.409v-118.104c-.001-27.211-22.059-49.27-49.27-49.27z" fill="#f6a96c"/></g><g><g><path d="m140.402 229.158c0 34.604-22.779 62.657-50.878 62.657s-50.878-28.052-50.878-62.657 22.779-75.583 50.878-75.583 50.878 40.979 50.878 75.583z" fill="#fff"/><path d="m51.572 229.158c0-31.908 19.367-69.235 44.415-74.859-2.117-.475-4.274-.724-6.463-.724-28.099 0-50.878 40.979-50.878 75.583s22.779 62.657 50.878 62.657c2.191 0 4.345-.19 6.463-.521-25.045-3.913-44.415-30.23-44.415-62.136z" fill="#ffebb4"/></g><g><path d="m250.897 229.158c0 34.604-22.779 62.657-50.878 62.657s-50.878-28.052-50.878-62.657 22.779-75.583 50.878-75.583 50.878 40.979 50.878 75.583z" fill="#fff"/><path d="m162.068 229.158c0-31.908 19.367-69.235 44.415-74.859-2.117-.475-4.274-.724-6.463-.724-28.099 0-50.878 40.979-50.878 75.583s22.779 62.657 50.878 62.657c2.191 0 4.345-.19 6.463-.521-25.045-3.913-44.415-30.23-44.415-62.136z" fill="#ffebb4"/></g><g><path d="m361.393 229.158c0 34.604-22.779 62.657-50.878 62.657s-50.878-28.052-50.878-62.657 22.779-75.583 50.878-75.583 50.878 40.979 50.878 75.583z" fill="#fff"/><path d="m272.563 229.158c0-31.908 19.367-69.235 44.415-74.859-2.117-.475-4.274-.724-6.463-.724-28.099 0-50.878 40.979-50.878 75.583s22.779 62.657 50.878 62.657c2.191 0 4.345-.19 6.463-.521-25.045-3.913-44.415-30.23-44.415-62.136z" fill="#ffebb4"/></g><g><path d="m471.888 229.158c0 34.604-22.779 62.657-50.878 62.657s-50.878-28.052-50.878-62.657 22.779-75.583 50.878-75.583c28.1 0 50.878 40.979 50.878 75.583z" fill="#fff"/><path d="m383.059 229.158c0-31.908 19.367-69.235 44.415-74.859-2.117-.475-4.274-.724-6.463-.724-28.099 0-50.878 40.979-50.878 75.583s22.779 62.657 50.878 62.657c2.191 0 4.345-.19 6.463-.521-25.045-3.913-44.415-30.23-44.415-62.136z" fill="#ffebb4"/></g></g><path d="m368.19 248.727h-1.869-110.12-1.869-110.12-1.869-111.987l14.94 71.187c1.833 8.733 9.536 14.987 18.459 14.987h47.06c8.924 0 16.626-6.254 18.459-14.987l5.897-28.1h16.216l5.897 28.1c1.833 8.733 9.535 14.987 18.459 14.987h47.06c8.924 0 16.626-6.254 18.459-14.987l5.897-28.1h16.216l5.897 28.1c1.833 8.733 9.535 14.987 18.459 14.987h47.06c8.924 0 16.626-6.254 18.459-14.987l5.897-28.1h16.216l5.897 28.1c1.833 8.733 9.536 14.987 18.459 14.987h47.06c8.924 0 16.626-6.254 18.459-14.987l14.94-71.187z" fill="#ef8c3d"/><g fill="#dc6a2f"><path d="m62.174 319.915-14.94-71.187h-16.878l14.94 71.187c1.833 8.733 9.536 14.987 18.459 14.987h16.879c-8.924 0-16.627-6.254-18.46-14.987z"/><path d="m174.163 319.915-5.897-28.1h-16.216l-.331 1.579 5.566 26.521c1.833 8.733 9.535 14.987 18.459 14.987h16.879c-8.924 0-16.627-6.254-18.46-14.987z"/><path d="m286.152 319.915-5.897-28.1h-16.216l-.332 1.58 5.566 26.52c1.833 8.733 9.535 14.987 18.459 14.987h16.879c-8.924 0-16.626-6.254-18.459-14.987z"/><path d="m398.141 319.915-5.897-28.1h-16.216l-.331 1.579 5.566 26.521c1.833 8.733 9.536 14.987 18.459 14.987h16.878c-8.924 0-16.626-6.254-18.459-14.987z"/></g><path d="m491.695 261.382h-472.856c-9.009 0-16.312-7.303-16.312-16.312 0-9.009 7.303-16.312 16.312-16.312h472.856c9.009 0 16.312 7.303 16.312 16.312.001 9.009-7.303 16.312-16.312 16.312z" fill="#f6a96c"/><path d="m73.661 245.07c0-9.009 7.303-16.312 16.312-16.312h-71.134c-9.009 0-16.312 7.303-16.312 16.312s7.303 16.312 16.312 16.312h71.134c-9.009 0-16.312-7.304-16.312-16.312z" fill="#f6be91"/></g><g><g><ellipse cx="192.735" cy="372.64" fill="#ffe65a" rx="52.321" ry="20.433"/><path d="m159.135 372.64c0-10.036 18.534-18.377 42.96-20.101-3.039-.215-6.164-.333-9.361-.333-28.896 0-52.321 9.148-52.321 20.433s23.425 20.434 52.321 20.434c3.197 0 6.322-.118 9.361-.333-24.427-1.723-42.96-10.063-42.96-20.1z" fill="#fed402"/></g><g><ellipse cx="342.263" cy="372.64" fill="#ffe65a" rx="52.321" ry="20.433"/><path d="m308.663 372.64c0-10.036 18.534-18.377 42.96-20.101-3.039-.215-6.164-.333-9.361-.333-28.896 0-52.321 9.148-52.321 20.433s23.425 20.434 52.321 20.434c3.197 0 6.322-.118 9.361-.333-24.426-1.723-42.96-10.063-42.96-20.1z" fill="#fed402"/></g><g><path d="m106.247 413.699h298.483v32.503h-298.483z" fill="#73c8f0"/><path d="m106.247 413.699h76.564v32.503h-76.564z" fill="#41b4e6"/><path d="m411.539 430.58h-312.101c-18.646 0-33.762-15.116-33.762-33.762h379.625c0 18.646-15.116 33.762-33.762 33.762z" fill="#afe6ff"/><path d="m122.438 396.818h-56.762c0 18.646 15.116 33.762 33.762 33.762h56.762c-18.646 0-33.762-15.116-33.762-33.762z" fill="#73c8f0"/></g><path d="m411.775 396.818h-312.573v-7.297c0-9.033 7.323-16.357 16.357-16.357h279.86c9.034 0 16.357 7.323 16.357 16.357v7.297z" fill="#fff"/><path d="m149.697 373.164h-34.138c-9.033 0-16.356 7.323-16.356 16.357v7.297h34.138v-7.297c-.001-9.034 7.323-16.357 16.356-16.357z" fill="#ffebb4"/></g></g></svg>