<svg id="Layer_1" enable-background="new 0 0 512 512" height="512" viewBox="0 0 512 512" width="512" xmlns="http://www.w3.org/2000/svg"><g><circle cx="256" cy="256" fill="#97d729" r="256"/><g><path d="m228.821 97.082h-2.421v-59.302h-160.114v59.301h-2.421c-14.22 0-25.747 11.528-25.747 25.747v253.908c0 14.22 11.528 25.747 25.747 25.747h164.955c14.22 0 25.748-11.528 25.748-25.747v-253.907c.001-14.22-11.527-25.747-25.747-25.747z" fill="#afe6ff"/><path d="m70.837 376.737v-253.908c0-14.22 11.528-25.747 25.747-25.747h2.421v-59.302h-32.719v59.301h-2.421c-14.22 0-25.747 11.528-25.747 25.747v253.908c0 14.22 11.528 25.747 25.747 25.747h32.719c-14.219.001-25.747-11.526-25.747-25.746z" fill="#73c8f0"/><path d="m39.442 114.68c-.855 2.562-1.324 5.3-1.324 8.149v253.908c0 14.22 11.528 25.747 25.747 25.747h164.955c14.22 0 25.748-11.528 25.748-25.747v-253.908c0-2.849-.47-5.587-1.324-8.149z" fill="#ffe65a"/><path d="m70.837 376.737v-253.908c0-2.849.47-5.587 1.324-8.149h-32.719c-.421 1.262-.746 2.568-.97 3.908-.005.03-.011.059-.016.088-.102.623-.177 1.255-.233 1.893-.01.113-.018.227-.026.341-.047.634-.079 1.273-.079 1.919v253.908c0 14.22 11.528 25.747 25.747 25.747h32.719c-14.219 0-25.747-11.527-25.747-25.747z" fill="#f5cc02"/><path d="m238.011 67.431h-183.335v-20.316c0-13.343 10.817-24.16 24.16-24.16h135.015c13.343 0 24.16 10.817 24.16 24.16z" fill="#55c7a6"/><path d="m123.24 22.955h-44.404c-13.343 0-24.16 10.817-24.16 24.16v20.316h44.404v-20.316c0-13.343 10.817-24.16 24.16-24.16z" fill="#39ae96"/><circle cx="181.088" cy="249.794" fill="#fffad7" r="73.48"/><g><path d="m179.692 211.653h-22.232l-11.117 19.253 11.117 19.254h22.232l11.116-19.254z" fill="#ffd23c"/><path d="m212.714 230.906h-22.232l-11.116 19.254 11.116 19.254h22.232l11.116-19.254z" fill="#ffc305"/><path d="m179.692 249.428h-22.232l-11.117 19.254 11.117 19.254h22.232l11.116-19.254z" fill="#ffa50a"/></g></g><g><g><path d="m326.547 368.641h81.24v24.68h-81.24z" fill="#ffebb4"/></g><g><path d="m326.547 368.641h37.554v24.68h-37.554z" fill="#f0d897"/></g><g><path d="m394.617 378.666h-54.899c-26.047 0-47.162-21.115-47.162-47.162v-136.902c0-5.122 4.152-9.273 9.273-9.273h130.676c5.122 0 9.273 4.152 9.273 9.273v136.903c.001 26.046-21.114 47.161-47.161 47.161z" fill="#fffad7"/></g><g><path d="m316.94 331.504v-146.176h-15.111c-5.122 0-9.273 4.152-9.273 9.273v136.903c0 26.047 21.115 47.162 47.162 47.162h24.384c-26.047 0-47.162-21.115-47.162-47.162z" fill="#ffebb4"/></g><g><g><path d="m295.075 382.36h144.184v21.167h-144.184z" fill="#f0d897"/></g><g><path d="m295.075 382.36h49.862v21.167h-49.862z" fill="#f0d897"/></g><g><path d="m443.694 393.354h-153.053c-12.143 0-21.988-9.844-21.988-21.988h197.027c.001 12.143-9.843 21.988-21.986 21.988z" fill="#ffebb4"/></g><g><path d="m305.62 371.366h-36.966c0 12.143 9.844 21.988 21.988 21.988h36.966c-12.144 0-21.988-9.845-21.988-21.988z" fill="#f0d897"/></g></g><g><path d="m465.07 330.384h-77.801v-119.703h77.801c14.775 0 26.796 12.021 26.796 26.796v66.11c0 14.776-12.021 26.797-26.796 26.797zm-59.872-17.93h59.871c4.889 0 8.867-3.978 8.867-8.867v-66.11c0-4.889-3.978-8.867-8.867-8.867h-59.871z" fill="#fffad7"/></g><g><path d="m400.554 220.768c-1.584 0-2.869-1.284-2.869-2.869v-32.571c0-1.585 1.285-2.869 2.869-2.869s2.869 1.284 2.869 2.869v32.571c-.001 1.585-1.285 2.869-2.869 2.869z" fill="#a56941"/></g><g><path d="m380.816 213.596h39.475v53.942h-39.475z" fill="#55c7a6"/></g><g><path d="m380.816 213.596h8.664v53.942h-8.664z" fill="#39ae96"/></g></g></g></svg>