<svg id="Layer_1" enable-background="new 0 0 512 512" height="512" viewBox="0 0 512 512" width="512" xmlns="http://www.w3.org/2000/svg"><g><circle cx="256" cy="256" fill="#afe6ff" r="256"/><g><g><path d="m225.405 125.583c-1.206.172-2.477-.093-3.557-.841-2.271-1.575-2.836-4.693-1.261-6.963l34.544-49.828c1.574-2.272 4.692-2.834 6.963-1.262 2.271 1.575 2.836 4.693 1.261 6.963l-34.544 49.828c-.826 1.192-2.076 1.913-3.406 2.103z" fill="#965028"/></g><circle cx="215.185" cy="137.793" fill="#fd4755" r="43.261"/><g><path d="m54.579 394.554h402.842v36.92h-402.842z" fill="#ffebb4"/><path d="m54.579 394.554h86.968v36.92h-86.968z" fill="#f0d897"/><path d="m465.155 413.729h-418.31c-21.18 0-38.35-17.17-38.35-38.35h495.011c-.001 21.18-17.171 38.35-38.351 38.35z" fill="#fffad7"/><path d="m72.971 375.379h-64.476c0 21.18 17.17 38.35 38.35 38.35h64.476c-21.18 0-38.35-17.17-38.35-38.35z" fill="#ffebb4"/></g><g><path d="m434.319 376.065h-367.753c-14.839 0-26.869-12.03-26.869-26.869 0-14.839 12.03-26.869 26.869-26.869h367.754c14.839 0 26.869 12.03 26.869 26.869-.001 14.839-12.03 26.869-26.87 26.869z" fill="#f6a96c"/><path d="m176.044 349.196c0-14.839 12.03-26.869 26.869-26.869h-136.347c-14.839 0-26.869 12.03-26.869 26.869s12.03 26.869 26.869 26.869h136.347c-14.839 0-26.869-12.03-26.869-26.869z" fill="#e6975a"/></g><g><path d="m434.319 322.136h-367.753c-14.839 0-26.869-12.03-26.869-26.869 0-14.839 12.03-26.869 26.869-26.869h367.754c14.839 0 26.869 12.03 26.869 26.869-.001 14.84-12.03 26.869-26.87 26.869z" fill="#e6975a"/><path d="m134.765 295.268c0-14.839 12.03-26.869 26.869-26.869h-95.068c-14.839 0-26.869 12.03-26.869 26.869s12.03 26.869 26.869 26.869h95.068c-14.84 0-26.869-12.03-26.869-26.869z" fill="#d9884a"/></g><g><path d="m434.319 268.208h-367.753c-14.839 0-26.869-12.03-26.869-26.869 0-14.839 12.03-26.869 26.869-26.869h367.754c14.839 0 26.869 12.03 26.869 26.869-.001 14.84-12.03 26.869-26.87 26.869z" fill="#f6a96c"/><path d="m102.242 241.339c0-14.839 12.03-26.869 26.869-26.869h-62.545c-14.839 0-26.869 12.03-26.869 26.869s12.03 26.869 26.869 26.869h62.545c-14.84 0-26.869-12.029-26.869-26.869z" fill="#e6975a"/></g><path d="m436.558 214.471c0-16.989-13.772-30.761-30.761-30.761h-308.475c-16.989 0-30.761 13.772-30.761 30.761h114.609c7.091 0 12.84 5.748 12.84 12.84v20.133c0 6.574 5.329 11.903 11.903 11.903h2.011c6.574 0 11.903-5.329 11.903-11.903v-20.134c0-7.091 5.748-12.84 12.84-12.84h42.563c7.091 0 12.84 5.748 12.84 12.84v15.119c0 6.574 5.329 11.903 11.903 11.903 6.574 0 11.903-5.329 11.903-11.903v-15.119c0-7.091 5.748-12.84 12.84-12.84 7.091 0 12.84 5.748 12.84 12.84v61.287c0 7.809 6.331 14.14 14.14 14.14 7.809 0 14.14-6.331 14.14-14.14v-61.287c0-7.091 5.748-12.84 12.84-12.84h57.882z" fill="#827ddc"/><g fill="#6e64c3"><path d="m138.601 183.71h-41.279c-16.989 0-30.761 13.772-30.761 30.761h41.279c0-16.989 13.772-30.761 30.761-30.761z"/><path d="m365.211 214.494c-6.854.412-12.058 6.387-12.058 13.253v14.682c0 6.574-5.329 11.903-11.903 11.903-1.292 0-2.533-.212-3.697-.593v34.857c0 7.809 6.331 14.14 14.14 14.14 7.809 0 14.14-6.331 14.14-14.14v-61.286c0-4.783 2.621-8.947 6.5-11.157-2.082-1.185-4.52-1.815-7.122-1.659z"/></g><path d="m288.902 183.71h-116.335c-9.061 0-16.407-7.345-16.407-16.407 0-9.061 7.345-16.407 16.407-16.407h116.335c9.061 0 16.407 7.345 16.407 16.407-.001 9.061-7.346 16.407-16.407 16.407z" fill="#fffad7"/><path d="m183.033 167.303c0-9.061 7.345-16.406 16.406-16.406h-26.872c-9.061 0-16.407 7.345-16.407 16.406s7.345 16.407 16.407 16.407h26.872c-9.061 0-16.406-7.346-16.406-16.407z" fill="#ffebb4"/></g></g></svg>