<svg id="Layer_1" enable-background="new 0 0 512 512" height="512" viewBox="0 0 512 512" width="512" xmlns="http://www.w3.org/2000/svg"><g><circle cx="256" cy="256" fill="#55c7a6" r="256"/><g><g><path d="m99.155 40.103h21.81v79.424h-21.81z" fill="#afe6ff"/></g><g><path d="m229.247 40.103h21.81v79.424h-21.81z" fill="#afe6ff"/></g><g><path d="m99.155 40.103h21.81v48.144h-21.81z" fill="#73c8f0"/></g><g><path d="m229.247 40.103h21.81v48.144h-21.81z" fill="#73c8f0"/></g><g><path d="m279.565 437.905h-209.303l18.058-325.602h173.187z" fill="#afe6ff"/></g><g><path d="m88.32 112.303-18.058 325.602h26.485l18.058-325.602z" fill="#73c8f0"/></g><g><path d="m263.323 146.86-1.816-34.557h-173.187l-1.816 34.557z" fill="#d2f0ff"/></g><g><path d="m112.989 146.86 1.816-34.557h-26.485l-1.816 34.557z" fill="#afe6ff"/></g><g><path d="m292.903 445.128h-235.979c0-15.184 12.309-27.493 27.493-27.493h180.993c15.184 0 27.493 12.309 27.493 27.493z" fill="#50555a"/></g><g><path d="m132.156 417.635h-47.74c-15.184 0-27.493 12.309-27.493 27.493h47.74c.001-15.184 12.309-27.493 27.493-27.493z" fill="#373c41"/></g><g><g><path d="m164.614 166.71c-2.444 0-3.847 2.784-2.385 4.744 3.523 4.722 9.063 11.272 12.684 11.272s9.161-6.55 12.684-11.272c1.462-1.959.059-4.744-2.385-4.744z" fill="#3c82af"/></g><g><path d="m208.908 166.71c-2.444 0-3.847 2.784-2.385 4.744 3.523 4.722 9.063 11.272 12.684 11.272s9.161-6.55 12.684-11.272c1.462-1.959.059-4.744-2.385-4.744z" fill="#3c82af"/></g><g><path d="m117.784 166.71c-2.444 0-3.847 2.784-2.385 4.744 3.523 4.722 9.063 11.272 12.684 11.272s9.161-6.55 12.684-11.272c1.462-1.959.059-4.744-2.385-4.744z" fill="#3c82af"/></g><g><path d="m141.195 202.575c-2.444 0-3.847 2.784-2.385 4.744 3.523 4.722 9.063 11.272 12.684 11.272s9.161-6.55 12.684-11.272c1.462-1.959.059-4.744-2.385-4.744z" fill="#3c82af"/></g><g><path d="m185.489 202.575c-2.444 0-3.847 2.784-2.385 4.744 3.523 4.722 9.063 11.272 12.684 11.272s9.161-6.55 12.684-11.272c1.462-1.959.059-4.744-2.385-4.744z" fill="#3c82af"/></g><g><path d="m229.782 202.575c-2.444 0-3.847 2.784-2.385 4.744 3.523 4.722 9.063 11.272 12.684 11.272s9.161-6.55 12.684-11.272c1.462-1.959.059-4.744-2.385-4.744z" fill="#3c82af"/></g><g><path d="m94.364 202.575c-2.444 0-3.847 2.784-2.385 4.744 3.523 4.722 9.063 11.272 12.684 11.272s9.161-6.55 12.684-11.272c1.462-1.959.059-4.744-2.385-4.744z" fill="#3c82af"/></g></g><g><g><path d="m164.614 238.942c-2.444 0-3.847 2.784-2.385 4.744 3.523 4.722 9.063 11.272 12.684 11.272s9.161-6.55 12.684-11.272c1.462-1.959.059-4.744-2.385-4.744z" fill="#3c82af"/></g><g><path d="m208.908 238.942c-2.444 0-3.847 2.784-2.385 4.744 3.523 4.722 9.063 11.272 12.684 11.272s9.161-6.55 12.684-11.272c1.462-1.959.059-4.744-2.385-4.744z" fill="#3c82af"/></g><g><path d="m117.784 238.942c-2.444 0-3.847 2.784-2.385 4.744 3.523 4.722 9.063 11.272 12.684 11.272s9.161-6.55 12.684-11.272c1.462-1.959.059-4.744-2.385-4.744z" fill="#3c82af"/></g><g><path d="m141.195 274.807c-2.444 0-3.847 2.784-2.385 4.744 3.523 4.722 9.063 11.272 12.684 11.272s9.161-6.55 12.684-11.272c1.462-1.959.059-4.744-2.385-4.744z" fill="#3c82af"/></g><g><path d="m185.489 274.807c-2.444 0-3.847 2.784-2.385 4.744 3.523 4.722 9.063 11.272 12.684 11.272s9.161-6.55 12.684-11.272c1.462-1.959.059-4.744-2.385-4.744z" fill="#3c82af"/></g><g><path d="m229.782 274.807c-2.444 0-3.847 2.784-2.385 4.744 3.523 4.722 9.063 11.272 12.684 11.272s9.161-6.55 12.684-11.272c1.462-1.959.059-4.744-2.385-4.744z" fill="#3c82af"/></g><g><path d="m94.364 274.807c-2.444 0-3.847 2.784-2.385 4.744 3.523 4.722 9.063 11.272 12.684 11.272s9.161-6.55 12.684-11.272c1.462-1.959.059-4.744-2.385-4.744z" fill="#3c82af"/></g></g><g><g><path d="m164.614 312.378c-2.444 0-3.847 2.784-2.385 4.744 3.523 4.722 9.063 11.272 12.684 11.272s9.161-6.55 12.684-11.272c1.462-1.959.059-4.744-2.385-4.744z" fill="#3c82af"/></g><g><path d="m208.908 312.378c-2.444 0-3.847 2.784-2.385 4.744 3.523 4.722 9.063 11.272 12.684 11.272s9.161-6.55 12.684-11.272c1.462-1.959.059-4.744-2.385-4.744z" fill="#3c82af"/></g><g><path d="m117.784 312.378c-2.444 0-3.847 2.784-2.385 4.744 3.523 4.722 9.063 11.272 12.684 11.272s9.161-6.55 12.684-11.272c1.462-1.959.059-4.744-2.385-4.744z" fill="#3c82af"/></g><g><path d="m141.195 348.243c-2.444 0-3.847 2.784-2.385 4.744 3.523 4.722 9.063 11.272 12.684 11.272s9.161-6.55 12.684-11.272c1.462-1.959.059-4.744-2.385-4.744z" fill="#3c82af"/></g><g><path d="m185.489 348.243c-2.444 0-3.847 2.784-2.385 4.744 3.523 4.722 9.063 11.272 12.684 11.272s9.161-6.55 12.684-11.272c1.462-1.959.059-4.744-2.385-4.744z" fill="#3c82af"/></g><g><path d="m229.782 348.243c-2.444 0-3.847 2.784-2.385 4.744 3.523 4.722 9.063 11.272 12.684 11.272s9.161-6.55 12.684-11.272c1.462-1.959.059-4.744-2.385-4.744z" fill="#3c82af"/></g><g><path d="m94.364 348.243c-2.444 0-3.847 2.784-2.385 4.744 3.523 4.722 9.063 11.272 12.684 11.272s9.161-6.55 12.684-11.272c1.462-1.959.059-4.744-2.385-4.744z" fill="#3c82af"/></g></g><g><g><path d="m164.614 384.611c-2.444 0-3.847 2.784-2.385 4.744 3.523 4.722 9.063 11.272 12.684 11.272s9.161-6.55 12.684-11.272c1.462-1.959.059-4.744-2.385-4.744z" fill="#3c82af"/></g><g><path d="m208.908 384.611c-2.444 0-3.847 2.784-2.385 4.744 3.523 4.722 9.063 11.272 12.684 11.272s9.161-6.55 12.684-11.272c1.462-1.959.059-4.744-2.385-4.744z" fill="#3c82af"/></g><g><path d="m117.784 384.611c-2.444 0-3.847 2.784-2.385 4.744 3.523 4.722 9.063 11.272 12.684 11.272s9.161-6.55 12.684-11.272c1.462-1.959.059-4.744-2.385-4.744z" fill="#3c82af"/></g></g><g><path d="m251.386 79.984h-152.945c-6.593 0-11.938-5.345-11.938-11.938v-17.363c0-6.593 5.345-11.938 11.938-11.938h152.944c6.593 0 11.938 5.345 11.938 11.938v17.364c0 6.593-5.345 11.937-11.937 11.937z" fill="#fd4755"/></g><g><path d="m119.008 68.047v-17.364c0-6.593 5.345-11.938 11.937-11.938h-32.504c-6.593 0-11.937 5.345-11.937 11.938v17.364c0 6.593 5.345 11.938 11.937 11.938h32.505c-6.593-.001-11.938-5.345-11.938-11.938z" fill="#e33442"/></g></g><g><g><path d="m252.162 187.826c0-6.269-5.082-11.351-11.351-11.351v-32.508h217.231v149.947h-217.231v-94.736c6.269 0 11.351-5.082 11.351-11.352z" fill="#fac855"/></g><g><path d="m408.783 221.987c11.598 0 20.185-9.479 20.687-20.687.5-11.172-9.866-20.687-20.687-20.687-1.004 0-1.984.076-2.94.213v-36.858h91.144v149.947h-91.144v-72.16c.971.151 1.954.232 2.94.232z" fill="#ffa50a"/></g><g><path d="m480.923 143.967h16.065v149.947h-16.065z" fill="#fa870a"/></g><g><circle cx="315.309" cy="180.192" fill="#ffa50a" r="11.234"/></g><g><circle cx="326.543" cy="192.563" fill="#ffa50a" r="16.087"/></g><g><circle cx="385.399" cy="273.67" fill="#ffa50a" r="11.257"/></g><g><circle cx="279.417" cy="252.752" fill="#ffa50a" r="11.761"/></g><g><circle cx="334.587" cy="249.035" fill="#ffa50a" r="8.044"/></g><g><circle cx="377.745" cy="176.475" fill="#ffa50a" r="7.517"/></g></g><g><path d="m145.162 324.766c-3.324 0-6.019-2.694-6.019-6.019v-31.743c0-3.325 2.695-6.019 6.019-6.019s6.019 2.695 6.019 6.019v31.743c0 3.324-2.695 6.019-6.019 6.019z" fill="#fac855"/></g><g><path d="m188.192 344.372c-3.324 0-6.019-2.695-6.019-6.019v-35.478c0-3.325 2.695-6.019 6.019-6.019s6.019 2.694 6.019 6.019v35.478c0 3.324-2.695 6.019-6.019 6.019z" fill="#fac855"/></g><g><path d="m161.635 379.883c-3.324 0-6.019-2.695-6.019-6.019v-35.511c0-3.325 2.695-6.019 6.019-6.019s6.019 2.694 6.019 6.019v35.511c0 3.325-2.695 6.019-6.019 6.019z" fill="#fac855"/></g><g><path d="m219.207 413.103c-3.324 0-6.019-2.694-6.019-6.019v-33.22c0-3.325 2.695-6.019 6.019-6.019s6.019 2.694 6.019 6.019v33.22c.001 3.325-2.694 6.019-6.019 6.019z" fill="#fac855"/></g><g><path d="m128.083 437.401c-3.324 0-6.019-2.694-6.019-6.019v-24.298c0-3.325 2.695-6.019 6.019-6.019s6.019 2.695 6.019 6.019v24.298c0 3.325-2.695 6.019-6.019 6.019z" fill="#fac855"/></g><g><path d="m197.446 484.455c-3.324 0-6.019-2.695-6.019-6.019v-28.638c0-3.325 2.695-6.019 6.019-6.019s6.019 2.694 6.019 6.019v28.638c0 3.325-2.695 6.019-6.019 6.019z" fill="#fac855"/></g></g></svg>