<svg id="Layer_1" enable-background="new 0 0 512 512" height="512" viewBox="0 0 512 512" width="512" xmlns="http://www.w3.org/2000/svg"><g><circle cx="256" cy="256" fill="#55c7a6" r="256"/><g><g><path d="m114.794 20.914h-13.8l-9.244 70.373h31.577z" fill="#fd4755"/><path d="m100.994 20.914-9.244 70.373h6.525l9.245-70.373z" fill="#e33442"/><path d="m152.166 108.783h-89.256v-17.561c0-6.305 5.111-11.416 11.416-11.416h66.424c6.305 0 11.416 5.111 11.416 11.416z" fill="#e33442"/><path d="m139.39 372.813h-63.703c-13.738 0-24.874-11.137-24.874-24.874v-217.816c0-13.738 11.137-24.874 24.874-24.874h63.702c13.738 0 24.874 11.137 24.874 24.874v217.815c.001 13.738-11.136 24.875-24.873 24.875z" fill="#fd4755"/><path d="m69.574 347.938v-217.815c0-13.738 11.137-24.874 24.874-24.874h-18.761c-13.738 0-24.874 11.137-24.874 24.874v217.815c0 13.738 11.137 24.874 24.874 24.874h18.761c-13.737.001-24.874-11.136-24.874-24.874z" fill="#e33442"/><g fill="none" stroke="#c12538" stroke-miterlimit="10" stroke-width="4.079"><path d="m107.538 86.802v18.447"/><path d="m96.119 86.802v18.447"/><path d="m84.699 86.802v18.447"/><path d="m73.279 86.802v18.447"/><path d="m141.798 86.802v18.447"/><path d="m130.378 86.802v18.447"/><path d="m118.958 86.802v18.447"/></g><path d="m80.662 313.789c-6.124 0-11.088-4.964-11.088-11.088v-161.49c0-6.124 4.964-11.088 11.088-11.088 6.124 0 11.088 4.964 11.088 11.088v161.49c0 6.124-4.965 11.088-11.088 11.088z" fill="#fff" opacity=".2"/></g><g><path d="m245.695 20.914h-13.8l-9.244 70.373h31.577z" fill="#ffe65a"/><path d="m231.895 20.914-9.244 70.373h6.526l9.244-70.373z" fill="#f5cc02"/><path d="m283.068 108.783h-89.256v-17.561c0-6.305 5.111-11.416 11.416-11.416h66.424c6.305 0 11.416 5.111 11.416 11.416z" fill="#f5cc02"/><path d="m270.291 372.813h-63.702c-13.738 0-24.874-11.137-24.874-24.874v-217.816c0-13.738 11.137-24.874 24.874-24.874h63.702c13.738 0 24.874 11.137 24.874 24.874v217.815c0 13.738-11.136 24.875-24.874 24.875z" fill="#ffe65a"/><path d="m200.475 347.938v-217.815c0-13.738 11.137-24.874 24.874-24.874h-18.761c-13.738 0-24.874 11.137-24.874 24.874v217.815c0 13.738 11.137 24.874 24.874 24.874h18.761c-13.737.001-24.874-11.136-24.874-24.874z" fill="#f5cc02"/><g fill="none" stroke="#db9d00" stroke-miterlimit="10" stroke-width="4.079"><path d="m238.44 86.802v18.447"/><path d="m227.02 86.802v18.447"/><path d="m215.6 86.802v18.447"/><path d="m204.18 86.802v18.447"/><path d="m272.699 86.802v18.447"/><path d="m261.279 86.802v18.447"/><path d="m249.859 86.802v18.447"/></g><path d="m211.563 313.789c-6.124 0-11.088-4.964-11.088-11.088v-161.49c0-6.124 4.964-11.088 11.088-11.088 6.124 0 11.088 4.964 11.088 11.088v161.49c0 6.124-4.964 11.088-11.088 11.088z" fill="#fff" opacity=".2"/></g></g><g><path d="m423.563 206.881h-13.556v-129.144c0-8.741 4.319-16.89 11.552-21.798l52.635-35.713 7.611 11.218-52.635 35.713c-3.511 2.382-5.607 6.338-5.607 10.58z" fill="#fd4755"/></g><path d="m474.195 20.226-2.117 1.436 4.514 6.653-52.635 35.713c-3.511 2.382-5.607 6.338-5.607 10.58v129.144h-8.342v3.128h13.556v-129.143c0-4.242 2.096-8.199 5.607-10.58l52.635-35.713z" fill="#e33442"/><g><path d="m475.123 384.982h-122.29l-14.13-225.116h150.55z" fill="#0091c8"/><g fill="#0073aa"><path d="m488.085 178.47 1.168-18.604h-150.55l1.168 18.604z"/><path d="m338.703 159.866 14.13 225.116h23.551l-14.13-225.116z"/></g></g><g><g><path d="m432.851 394.487c-102.331 35.797-213.958 35.81-316.295.038-25.005-8.721-37.136-33.443-27.96-52.219 9.182-18.846 32.58-26.408 52.97-19.344 86.148 30.113 180.116 30.102 266.259-.032 20.388-7.067 43.788.485 52.976 19.331 9.179 18.776-2.947 43.501-27.95 52.226z" fill="#dc6a2f"/><path d="m185.213 374.292c4.615-20.452 25.328-33.246 46.539-31.037-30.558-3.265-60.827-10.029-90.187-20.292-20.391-7.064-43.787.497-52.97 19.344-9.176 18.777 2.955 43.498 27.96 52.218 34.878 12.191 70.835 20.226 107.135 24.105-26.021-2.763-43.098-23.959-38.477-44.338z" fill="#c45a23"/><path d="m479.809 376.61c-129.832 61.335-280.49 61.335-410.321 0-18.649-8.794-26.598-28.625-18.399-42.51 8.207-13.928 27.375-17.878 43.367-10.363 114.031 53.871 246.354 53.871 360.385 0 15.992-7.517 35.159-3.565 43.367 10.363 8.198 13.885.25 33.716-18.399 42.51z" fill="#aa321e"/><path d="m446.254 432.81c-111.001 38.83-232.085 38.844-343.093.041-27.093-9.447-40.858-34.956-31.683-53.73 9.182-18.852 34.214-25.622 56.693-17.832 94.818 33.143 198.244 33.132 293.056-.036 22.477-7.793 47.512-1.032 56.698 17.818 9.181 18.771-4.579 44.287-31.671 53.739z" fill="#ef8c3d"/><path d="m132.556 402.626c6.54-19.924 30.181-30.104 53.304-25.449-19.482-3.974-38.757-9.27-57.689-15.887-22.479-7.79-47.511-1.021-56.693 17.832-9.174 18.772 4.59 44.283 31.683 53.73 22.165 7.748 44.731 13.948 67.539 18.601-27.876-5.667-44.685-28.982-38.144-48.827z" fill="#dc6a2f"/><path d="m133.443 337.957c28.171 9.366 23.39 26.724 53.793 33.595 30.61 5.552 32.998-12.313 62.256-9.923 29.318 1.121 29.554 19.137 60.508 17.296 30.874-3.161 28.209-20.972 57.092-26.829 28.664-7.124 33.907 10.128 63.512-.427" fill="none" stroke="#ffe65a" stroke-linecap="round" stroke-miterlimit="10" stroke-width="11.68"/></g></g><path d="m478 154.207h-128.044v-9.24c0-8.198 6.646-14.843 14.843-14.843h98.357c8.198 0 14.843 6.646 14.843 14.843v9.24z" fill="#f0d897"/><path d="m500.686 171.023h-173.282l2.068-19.324c.603-5.632 5.355-9.903 11.019-9.903h147.107c5.664 0 10.417 4.271 11.019 9.903z" fill="#ffebb4"/><path d="m383.245 141.796h-42.754c-5.664 0-10.417 4.271-11.019 9.903l-2.068 19.324h42.754l2.068-19.324c.602-5.632 5.355-9.903 11.019-9.903z" fill="#f0d897"/><circle cx="479.102" cy="25.002" fill="#e33442" r="6.948"/><circle cx="479.102" cy="25.002" fill="#e33442" r="6.948"/><path d="m476.016 20.149c-.775 0-1.517.132-2.213.366-1.026 1.211-1.648 2.775-1.648 4.487 0 3.837 3.111 6.948 6.948 6.948.774 0 1.517-.132 2.213-.366 1.026-1.211 1.648-2.775 1.648-4.487-.001-3.838-3.111-6.948-6.948-6.948z" fill="#c92e3b"/></g></svg>