<svg id="Layer_1" enable-background="new 0 0 512 512" height="512" viewBox="0 0 512 512" width="512" xmlns="http://www.w3.org/2000/svg"><g><circle cx="256" cy="256" fill="#ffaac1" r="256"/><g><g><path d="m336.063 140.949c0 10.955-34.645 14.91-34.645 14.91-.519 15.553.187 31.115 2.097 46.559 5.865 47.433 22.19 147.598 59.747 199.944v-214.783-11.304-18.768z" fill="#afe6ff"/><path d="m317.269 202.418c-1.909-15.444-2.615-31.006-2.097-46.559s34.645-3.955 34.645-14.91h-13.755c0 10.955-34.645 14.91-34.645 14.91-.519 15.553.187 31.115 2.097 46.559 5.865 47.433 22.19 147.598 59.747 199.944v-22.947c-27.917-54.875-40.899-135.811-45.992-176.997z" fill="#fff"/><path d="m357.401 1.299h-28.293c-3.236 0-5.86 2.623-5.86 5.86v20.539c0 3.236 2.623 5.859 5.86 5.859-8.059 29.284-6.679 58.018-3.585 78.209 2.262 14.762-9.172 28.058-24.106 28.058v17.681h61.844v-16.558-1.123-106.266-8.478-17.921c0-3.236-2.624-5.86-5.86-5.86z" fill="#a56941"/><path d="m315.173 139.826c14.934 0 26.367-13.297 24.106-28.058-3.093-20.192-4.474-48.925 3.585-78.209-3.236 0-5.86-2.623-5.86-5.859v-20.541c0-3.236 2.623-5.86 5.86-5.86h-13.755c-3.236 0-5.86 2.623-5.86 5.86v20.539c0 3.236 2.623 5.859 5.86 5.859-8.059 29.284-6.679 58.018-3.585 78.209 2.262 14.762-9.172 28.058-24.106 28.058v17.681h13.755z" fill="#965028"/><g fill="#fff"><circle cx="347.691" cy="107.457" r="4.436"/><circle cx="347.691" cy="54.554" r="4.436"/></g></g><g><path d="m248.804 169.184c0 17.071-12.109 31.314-28.207 34.608-4.014.821-6.806 4.461-6.399 8.537 3.236 32.436 18.231 157.535 61.804 218.267v-214.781-11.305-35.326z" fill="#afe6ff"/><g><path d="m227.006 202.863c-.035-.349-.038-.692-.027-1.033-2.039.844-4.171 1.51-6.382 1.962-4.014.821-6.806 4.461-6.399 8.537 3.236 32.436 18.231 157.535 61.804 218.267v-30.565c-33.786-64.903-46.1-168.14-48.996-197.168z" fill="#fff"/></g><path d="m241.849 29.535c-3.236 0-5.86 2.623-5.86 5.86v20.539c0 3.236 2.623 5.86 5.86 5.86-8.125 34.328-7.797 68.656.996 102.984.663 2.59 2.998 4.407 5.672 4.407h27.484v-107.392-8.478-17.921c0-3.236-2.623-5.86-5.86-5.86h-28.292z" fill="#a56941"/><path d="m252.869 164.777c-8.793-34.328-9.121-68.656-.996-102.984-3.236 0-5.86-2.623-5.86-5.86v-20.539c0-3.236 2.623-5.86 5.86-5.86h-10.024c-3.236 0-5.86 2.623-5.86 5.86v20.539c0 3.236 2.623 5.86 5.86 5.86-8.125 34.328-7.797 68.656.996 102.984.663 2.59 2.998 4.407 5.672 4.407h10.024c-2.674 0-5.008-1.816-5.672-4.407z" fill="#965028"/><g fill="#fff"><circle cx="260.432" cy="135.692" r="4.436"/><circle cx="260.432" cy="82.789" r="4.436"/></g></g><g><path d="m159.977 204.961c0 8.681-3.132 16.63-8.327 22.78-2.952 3.495-4.487 7.971-4.487 12.546v11.304 80.384c0 37.283 8.09 74.212 24.403 107.737 4.743 9.748 9.934 18.75 15.609 26.661v-214.782-11.304-35.326z" fill="#afe6ff"/><path d="m180.736 434.21c-16.312-33.525-24.403-70.454-24.403-107.737v-105.887c-1.274 2.577-2.846 4.98-4.683 7.155-2.952 3.495-4.487 7.971-4.487 12.546v11.304 80.384c0 37.283 8.09 74.212 24.403 107.737 4.743 9.747 9.934 18.75 15.609 26.661v-19.927c-2.23-3.923-4.379-8.004-6.439-12.236z" fill="#fff"/><path d="m153.023 65.311c-3.236 0-5.86 2.623-5.86 5.86v20.539c0 3.236 2.623 5.86 5.86 5.86-8.125 34.328-7.797 68.656.996 102.984.663 2.59 2.998 4.407 5.672 4.407h27.484v-107.392-8.478-17.92c0-3.236-2.623-5.86-5.86-5.86z" fill="#a56941"/><path d="m164.043 200.554c-8.793-34.328-9.121-68.656-.996-102.984-3.236 0-5.86-2.623-5.86-5.86v-20.539c0-3.236 2.623-5.86 5.86-5.86h-10.024c-3.236 0-5.86 2.623-5.86 5.86v20.539c0 3.236 2.623 5.86 5.86 5.86-8.125 34.328-7.797 68.656.996 102.984.663 2.59 2.998 4.407 5.672 4.407h10.024c-2.674 0-5.009-1.817-5.672-4.407z" fill="#965028"/><g fill="#fff"><circle cx="171.606" cy="171.468" r="4.436"/><circle cx="171.606" cy="118.565" r="4.436"/></g></g><path d="m389.575 512h-258.286v-237.31l258.286-57.772z" fill="#ef8c3d"/><path d="m389.575 233.062v-16.144l-258.286 57.772v237.31h27.372v-227.222z" fill="#dc6a2f"/></g></g></svg>