<svg id="Layer_1" enable-background="new 0 0 512 512" height="512" viewBox="0 0 512 512" width="512" xmlns="http://www.w3.org/2000/svg"><g><g><circle cx="256" cy="256" fill="#ffaac1" r="256"/></g><g><g><path d="m347.212 214.144h-182.424v-26.297c0-8.489 6.881-15.37 15.37-15.37h151.685c8.489 0 15.37 6.881 15.37 15.37z" fill="#fffad7"/></g><g><path d="m210.184 172.477h-30.027c-8.488 0-15.37 6.881-15.37 15.37v26.297h30.027v-26.297c0-8.488 6.882-15.37 15.37-15.37z" fill="#ffebb4"/></g><g><path d="m368.913 203.584h-225.826c-8.797 0-16.307 6.354-17.767 15.028l-42.732 254.05c-1.848 10.989 6.623 21.006 17.767 21.006h311.291c11.144 0 19.614-10.016 17.767-21.006l-42.732-254.05c-1.461-8.675-8.972-15.028-17.768-15.028z" fill="#0091c8"/></g><g><path d="m119.183 472.662 42.732-254.051c1.459-8.675 8.97-15.028 17.767-15.028h-36.595c-8.797 0-16.307 6.354-17.767 15.028l-42.732 254.051c-1.848 10.989 6.623 21.006 17.767 21.006h36.595c-11.144 0-19.615-10.016-17.767-21.006z" fill="#0073aa"/></g><g><circle cx="256" cy="348.625" fill="#fffad7" r="89.602"/></g><g><circle cx="256" cy="348.625" fill="#fffad7" r="89.602"/></g><g><g><path d="m256 287.853c33.51 0 60.772 27.262 60.772 60.771 0 33.511-27.263 60.772-60.772 60.772s-60.772-27.262-60.772-60.772c0-33.509 27.262-60.771 60.772-60.771m0-11.426c-39.875 0-72.2 32.324-72.2 72.199s32.325 72.2 72.2 72.2 72.2-32.325 72.2-72.2-32.325-72.2-72.2-72.199z" fill="#fd4755"/></g></g><g><circle cx="256" cy="348.625" fill="#fd4755" r="14.085"/></g><g><g><path d="m251.429 282.359h9.142v10.892h-9.142z" fill="#fd4755"/></g><g><path d="m251.429 404h9.142v10.892h-9.142z" fill="#fd4755"/></g><g><path d="m311.374 344.053h10.892v9.143h-10.892z" fill="#fd4755"/></g><g><path d="m189.734 344.053h10.892v9.143h-10.892z" fill="#fd4755"/></g><g><path d="m222.207 396.555c-1.01 0-2.028-.324-2.885-.995-2.042-1.595-2.403-4.544-.808-6.585l33.79-43.239c1.596-2.041 4.544-2.405 6.585-.808 2.042 1.595 2.403 4.544.808 6.585l-33.79 43.239c-.926 1.184-2.306 1.803-3.7 1.803z" fill="#373c41"/></g></g><g><path d="m113.359 31.819c0 78.778 63.863 142.641 142.641 142.641s142.641-63.862 142.641-142.641z" fill="#fff"/></g><g><path d="m149.954 31.818h-36.595c0 78.778 63.863 142.641 142.641 142.641 6.2 0 12.307-.396 18.297-1.164-70.136-8.981-124.343-68.898-124.343-141.477z" fill="#afe6ff"/></g></g></g></svg>