<svg id="Layer_1" enable-background="new 0 0 512 512" height="512" viewBox="0 0 512 512" width="512" xmlns="http://www.w3.org/2000/svg"><g><path d="m512 255.763c0 96.831-53.861 181.095-133.284 224.517l-307.625-47.637c-44.036-45.937-71.091-108.252-71.091-176.88 0-141.254 114.615-255.763 256-255.763s256 114.509 256 255.763z" fill="#afe6ff"/><g><path d="m290.544 345.164h-186.217v-233.846c0-29.631 24.021-53.652 53.652-53.652h78.913c29.631 0 53.652 24.021 53.652 53.652z" fill="#965028"/><g><path d="m336.034 510.434h-51.624v-47.917h95.387v4.154c.001 24.169-19.593 43.763-43.763 43.763z" fill="#ffaac1"/></g><g><g><g><path d="m236.324 139.585h-77.77c-17.439 0-31.576-3.428-31.576-20.851v-50.84c0-17.423 14.137-31.547 31.576-31.547h77.77c17.439 0 31.576 14.124 31.576 31.547v50.84c0 17.424-14.137 20.851-31.576 20.851z" fill="#965028"/></g></g><g><g><path d="m136.546 145.935v-54.47c0-18.667 15.146-33.799 33.831-33.799h-14.599c-18.684 0-33.831 15.132-33.831 33.799v54.47c0 18.667 15.146 22.339 33.831 22.339h14.599c-18.684 0-33.831-3.672-33.831-22.339z" fill="#965028"/></g></g><g><path d="m268.69 302.555h-141.757c-30.866 0-55.888 24.999-55.888 55.836v74.296c46.539 48.858 112.255 79.313 185.093 79.313 23.708 0 46.656-3.24 68.44-9.277v-144.331c0-30.838-25.022-55.837-55.888-55.837z" fill="#ffaac1"/></g><g><g><path d="m197.824 333.113h-.025c-14.606 0-26.447-11.841-26.447-26.447v-59.198h52.919v59.198c0 14.606-11.841 26.447-26.447 26.447z" fill="#ff965a"/></g></g><g><g><path d="m197.068 282.614c-41.488 0-75.12-33.601-75.12-75.05v-62.025c0-24.124 19.575-43.681 43.722-43.681h106.219l1.043 104.964c-.001 41.858-33.966 75.792-75.864 75.792z" fill="#ffbe82"/></g></g><g><g><g><path d="m136.696 218.647v-7.29c-.089-1.502-.149-3.012-.149-4.536v-93.854c-8.956 7.999-14.599 19.625-14.599 32.571v61.282c0 22.238 9.586 42.239 24.855 56.103.898.816 1.816 1.61 2.753 2.382 1.873 1.545 3.822 3.001 5.84 4.363.899.607 1.816 1.189 2.743 1.758-13.264-13.646-21.443-32.254-21.443-52.779z" fill="#ff965a"/></g></g></g><g><g><path d="m272.94 197.515h-.008v-44.609h.008c9.723 0 17.605 7.882 17.605 17.605v9.4c-.001 9.722-7.883 17.604-17.605 17.604z" fill="#ff965a"/></g></g><g><g><path d="m121.94 197.515h.008v-44.609h-.008c-9.723 0-17.605 7.882-17.605 17.605v9.4c0 9.722 7.882 17.604 17.605 17.604z" fill="#ff965a"/></g></g><g><g><path d="m171.611 186.055c-3.455 0-6.257-2.799-6.257-6.251v-17.096c0-3.452 2.801-6.251 6.257-6.251 3.455 0 6.257 2.799 6.257 6.251v17.096c-.001 3.452-2.802 6.251-6.257 6.251z" fill="#373c41"/></g></g><g><g><path d="m222.707 186.055c-3.455 0-6.257-2.799-6.257-6.251v-17.096c0-3.452 2.801-6.251 6.257-6.251 3.455 0 6.257 2.799 6.257 6.251v17.096c-.001 3.452-2.802 6.251-6.257 6.251z" fill="#373c41"/></g></g><g><g><g><path d="m179.854 153.332h-18.246c-3.455 0-6.257-2.799-6.257-6.251 0-3.452 2.801-6.251 6.257-6.251h18.246c3.455 0 6.257 2.799 6.257 6.251-.001 3.453-2.802 6.251-6.257 6.251z" fill="#965028"/></g></g></g><g><g><g><path d="m231.992 153.332h-18.246c-3.455 0-6.257-2.799-6.257-6.251 0-3.452 2.801-6.251 6.257-6.251h18.246c3.455 0 6.257 2.799 6.257 6.251 0 3.453-2.801 6.251-6.257 6.251z" fill="#965028"/></g></g></g><g><g><path d="m179.289 218.76c0 10.22 8.293 18.505 18.522 18.505s18.522-8.285 18.522-18.505z" fill="#fff"/></g></g><g><g><path d="m187.674 196.766c-1.555 5.476 1.271 11.44 6.677 13.238 1.088.362 2.251.558 3.461.558 1.209 0 2.373-.196 3.461-.558 5.406-1.798 8.232-7.762 6.677-13.238l-7.586-26.707c-.73-2.569-4.374-2.569-5.103 0z" fill="#ff965a"/></g></g><g><path d="m256.607 368.254v-65.699h-25.009l-34.15 107.505-.243 95.102c18.92 4.464 38.648 6.837 58.933 6.837 9.558 0 18.987-.542 28.272-1.563v-97.255c-16.481-8.243-27.803-25.259-27.803-44.927z" fill="#433f43"/></g><g><g><path d="m198.648 333.113 24.374 22.319 23.97-52.877-22.756-12.499z" fill="#fff"/></g></g><g><path d="m71.044 358.392v74.296c6.562 6.889 13.515 13.401 20.806 19.525v-93.82c0-30.838 25.022-55.837 55.888-55.837h-20.806c-30.865-.001-55.888 24.998-55.888 55.836z" fill="#ff8291"/></g><g><path d="m139.043 368.254c0 19.668-11.322 36.684-27.804 44.927v53.802c25.994 17.917 55.463 31.162 87.206 38.482l-.244-95.405-34.149-107.505h-25.009z" fill="#554e56"/></g><g><path d="m139.043 368.254c0 19.668-11.322 36.684-27.804 44.927v53.802c6.726 4.636 13.684 8.957 20.855 12.944v-66.746c16.482-8.243 27.804-25.259 27.804-44.927v-65.699h-20.855z" fill="#433f43"/></g><g><g><path d="m197.811 333.113-24.374 22.319-24.842-52.877 22.757-12.499z" fill="#fff"/></g></g><g><path d="m197.811 505.31c5.073 1.184 10.207 2.205 15.392 3.082v-99.805h-15.392z" fill="#554e56"/></g><g><g><path d="m202.469 428.804h-.009c-2.773 0-5.02-2.248-5.02-5.02 0-2.773 2.248-5.02 5.02-5.02h.009c2.773 0 5.02 2.248 5.02 5.02.001 2.772-2.247 5.02-5.02 5.02z" fill="#433f43"/></g></g><g><g><path d="m202.469 453.807h-.009c-2.773 0-5.02-2.248-5.02-5.02 0-2.773 2.248-5.02 5.02-5.02h.009c2.773 0 5.02 2.248 5.02 5.02.001 2.772-2.247 5.02-5.02 5.02z" fill="#433f43"/></g></g><g><g><path d="m202.469 478.81h-.009c-2.773 0-5.02-2.248-5.02-5.02 0-2.773 2.248-5.02 5.02-5.02h.009c2.773 0 5.02 2.248 5.02 5.02.001 2.772-2.247 5.02-5.02 5.02z" fill="#433f43"/></g></g><g><g><path d="m202.469 503.813h-.009c-2.773 0-5.02-2.248-5.02-5.02 0-2.773 2.248-5.02 5.02-5.02h.009c2.773 0 5.02 2.248 5.02 5.02.001 2.773-2.247 5.02-5.02 5.02z" fill="#433f43"/></g></g><g><g><path d="m121.952 183.87h-.005v-73.525h10.062v63.468c.001 5.554-4.502 10.057-10.057 10.057z" fill="#965028"/></g></g><g><g><path d="m272.927 183.87h.005v-84.985h-10.062v74.928c0 5.554 4.502 10.057 10.057 10.057z" fill="#965028"/></g></g></g><g><g><path d="m401.696 475.541h-21.898c-5.183 0-9.385-4.198-9.385-9.376s4.202-9.376 9.385-9.376h21.898c5.183 0 9.385 4.198 9.385 9.376s-4.202 9.376-9.385 9.376z" fill="#ffbe82"/></g><g><path d="m452.669 464.602h-225.585c-13.809 0-25.003-11.194-25.003-25.003h275.592c-.001 13.809-11.195 25.003-25.004 25.003z" fill="#a56941"/></g><g><path d="m246.92 439.599h-44.839c0 13.809 11.205 25.003 25.026 25.003h44.839c-13.822 0-25.026-11.194-25.026-25.003z" fill="#965028"/></g><g><path d="m318.796 484.917c-4.319 0-7.821-3.498-7.821-7.814v-21.878c0-4.316 3.502-7.814 7.821-7.814s7.821 3.498 7.821 7.814v21.878c-.001 4.316-3.502 7.814-7.821 7.814z" fill="#ffbe82"/></g><g><path d="m334.437 486.48c-5.183 0-9.385-4.198-9.385-9.376v-21.878c0-5.178 4.202-9.376 9.385-9.376s9.385 4.198 9.385 9.376v21.878c0 5.178-4.201 9.376-9.385 9.376z" fill="#ffbe82"/></g><g><path d="m352.164 486.48c-5.183 0-9.385-4.198-9.385-9.376v-21.878c0-5.178 4.202-9.376 9.385-9.376s9.385 4.198 9.385 9.376v21.878c0 5.178-4.201 9.376-9.385 9.376z" fill="#ffbe82"/></g><g><path d="m369.891 486.48c-5.183 0-9.385-4.198-9.385-9.376v-21.878c0-5.178 4.202-9.376 9.385-9.376s9.385 4.198 9.385 9.376v21.878c0 5.178-4.201 9.376-9.385 9.376z" fill="#ffbe82"/></g></g><ellipse cx="120.06" cy="199.148" fill="#fff" rx="6.919" ry="6.912"/><ellipse cx="273.974" cy="199.148" fill="#fff" rx="6.919" ry="6.912"/><g fill="#965028"><path d="m194.649 135.335h-72.702v-38.331h111.033c0 21.17-17.161 38.331-38.331 38.331z"/><path d="m231.621 101.857c17.163 0 31.249 14.679 31.249 31.826l.87-32.695z"/></g></g><g><g><g><g><path d="m357.015 413.918h58.512v17.759h-58.512z" fill="#ffebb4"/></g><g><path d="m357.015 413.918h27.048v17.759h-27.048z" fill="#f0d897"/></g><g><path d="m406.057 421.132h-39.572c-18.751 0-33.952-15.201-33.952-33.952v-45.71c0-3.687 2.989-6.676 6.676-6.676h94.123c3.687 0 6.676 2.989 6.676 6.676v45.71c0 18.751-15.2 33.952-33.951 33.952z" fill="#fffad7"/></g><g><path d="m350.095 387.196v-52.402h-10.883c-3.689 0-6.679 2.988-6.679 6.673v45.729c0 18.742 15.208 33.936 33.967 33.936h17.562c-18.759 0-33.967-15.194-33.967-33.936z" fill="#ffebb4"/></g><g><g><path d="m334.348 423.79h103.846v15.231h-103.846z" fill="#f0d897"/></g><g><path d="m334.348 423.79h35.912v15.231h-35.912z" fill="#f0d897"/></g><g><path d="m441.402 431.7h-110.262c-8.738 0-15.821-7.083-15.821-15.821h141.905c-.001 8.738-7.084 15.821-15.822 15.821z" fill="#ffebb4"/></g><g><path d="m341.942 415.879h-26.624c0 8.738 7.09 15.821 15.836 15.821h26.624c-8.745 0-15.836-7.083-15.836-15.821z" fill="#f0d897"/></g></g></g><g><path d="m440.955 398.047c-15.169 0-27.51-12.329-27.51-27.484 0-15.156 12.341-27.485 27.51-27.485s27.51 12.329 27.51 27.485c0 15.155-12.341 27.484-27.51 27.484zm0-41.775c-7.887 0-14.303 6.411-14.303 14.291 0 7.879 6.416 14.29 14.303 14.29s14.303-6.411 14.303-14.29c-.001-7.88-6.417-14.291-14.303-14.291z" fill="#fffad7"/></g></g><g><path d="m399.365 152.906s-48.86 36.027-33.072 74.138 38.506 55.582 19.978 84.448c0 0 26.875-22.176 19.706-51.566-7.169-29.389-21.914-67.986-6.612-107.02z" fill="#fff"/></g></g></g></svg>