<svg id="Layer_1" enable-background="new 0 0 512 512" height="512" viewBox="0 0 512 512" width="512" xmlns="http://www.w3.org/2000/svg"><g><circle cx="256" cy="256" fill="#55c7a6" r="256"/><g><path d="m258.956 215.942-25.112-9.046c-2.667-.961-4.05-3.902-3.089-6.569l9.046-25.112c.961-2.667 3.902-4.05 6.569-3.089l25.112 9.046c2.667.961 4.05 3.902 3.089 6.569l-9.046 25.112c-.961 2.667-3.901 4.05-6.569 3.089z" fill="#fff"/><path d="m238.064 202.96 9.046-25.112c.961-2.667 3.902-4.05 6.569-3.089l-7.308-2.633c-2.667-.961-5.608.422-6.569 3.089l-9.046 25.112c-.961 2.667.422 5.608 3.09 6.569l7.308 2.633c-2.668-.961-4.051-3.902-3.09-6.569z" fill="#d2f0ff"/></g><g><path d="m412.137 63.503 17.723-36.974c1.25-2.609.149-5.737-2.459-6.988l-26.127-12.524c-2.609-1.25-5.737-.149-6.988 2.459l-17.723 36.974c-13.389 27.932-31.954 52.01-59.74 65.699-12.291 6.055-22.716 16.121-29.099 29.437l-68.355 142.605c-3.618 7.548-.432 16.601 7.116 20.219l78.558 37.655c7.548 3.618 16.601.432 20.219-7.116l68.355-142.605c6.383-13.316 7.7-27.747 4.722-41.122-6.732-30.234.41-59.787 13.798-87.719z" fill="#50555a"/><path d="m412.137 63.503 17.723-36.974c1.25-2.609.149-5.737-2.459-6.988l-26.127-12.524c-2.609-1.25-5.737-.149-6.988 2.459l-17.723 36.974c-13.389 27.932-31.954 52.01-59.74 65.699-12.291 6.055-22.716 16.121-29.099 29.437l-68.355 142.605c-3.618 7.548-.432 16.601 7.116 20.219l78.558 37.655c7.548 3.618 16.601.432 20.219-7.116l68.355-142.605c6.383-13.316 7.7-27.747 4.722-41.122-6.732-30.234.41-59.787 13.798-87.719z" fill="#177d74"/><path d="m235.429 291.889 68.355-142.605c6.383-13.316 16.808-23.382 29.099-29.437 27.786-13.689 46.351-37.766 59.74-65.699l17.723-36.974c1.251-2.609 4.379-3.71 6.988-2.459l-16.059-7.698c-2.609-1.251-5.737-.15-6.988 2.459l-17.723 36.974c-13.389 27.932-31.954 52.01-59.74 65.699-12.291 6.055-22.716 16.121-29.099 29.437l-68.355 142.605c-3.618 7.548-.432 16.601 7.116 20.219l16.059 7.698c-7.548-3.618-10.735-12.671-7.116-20.219z" fill="#2d5d5e"/><path d="m333.65 181.521 65.847-23.176c-.254-2.398-.636-4.777-1.158-7.122-6.733-30.235.409-59.788 13.798-87.72l10.702-22.326-35.574-17.052-10.702 22.326c-13.389 27.932-31.954 52.01-59.74 65.699-2.172 1.07-4.282 2.272-6.326 3.588z" fill="#ffc305"/><path d="m333.65 181.521 65.847-23.176c-.254-2.398-.636-4.777-1.158-7.122-6.733-30.235.409-59.788 13.798-87.72l10.702-22.326-35.574-17.052-10.702 22.326c-13.389 27.932-31.954 52.01-59.74 65.699-2.172 1.07-4.282 2.272-6.326 3.588z" fill="#ffc305"/><path d="m313.321 114.028c-.952.547-1.895 1.112-2.82 1.708-.001.001-.002.001-.003.002l5.656 16.07c4.932-4.922 10.598-8.94 16.729-11.961 27.786-13.689 46.351-37.766 59.74-65.699l10.702-22.326-16.059-7.698-10.702 22.326c-13.389 27.932-31.954 52.01-59.74 65.699-1 .493-1.984 1.02-2.957 1.567-.184.103-.365.208-.546.312z" fill="#ffa50a"/><path d="m414.877 49.89-29.488-14.134c-3.387-1.624-4.817-5.686-3.193-9.073l9.808-20.463c1.624-3.387 5.686-4.817 9.073-3.193l29.488 14.134c3.387 1.624 4.817 5.686 3.193 9.073l-9.808 20.463c-1.624 3.387-5.686 4.816-9.073 3.193z" fill="#ffe65a"/><path d="m394.029 32.355 9.808-20.463c1.624-3.387 5.686-4.817 9.073-3.193l-11.833-5.672c-3.387-1.624-7.449-.194-9.073 3.193l-9.808 20.463c-1.624 3.387-.194 7.449 3.193 9.073l11.833 5.672c-3.387-1.624-4.817-5.686-3.193-9.073z" fill="#ffc305"/><path d="m333.774 101.746 62.06 29.747c-.06-1.744-.074-3.485-.053-5.222l-57.903-27.754c-1.341 1.104-2.707 2.183-4.104 3.229z" fill="#2d5d5e"/><path d="m253.488 194.519h102.066v95.728h-102.066z" fill="#ffe65a" transform="matrix(.902 .432 -.432 .902 134.684 -107.814)"/><path d="m258.001 174.661h10.18v95.728h-10.18z" fill="#ffc305" transform="matrix(.902 .432 -.432 .902 122.031 -91.857)"/><path d="m264.265 204.627h80.512v75.512h-80.512z" fill="none" stroke="#50555a" stroke-miterlimit="10" stroke-width="3.749" transform="matrix(.902 .432 -.432 .902 134.684 -107.814)"/></g><g><path d="m181.545 229.653-24.815-9.832c-2.636-1.044-3.926-4.027-2.881-6.663l9.832-24.815c1.044-2.636 4.027-3.926 6.663-2.881l24.815 9.832c2.636 1.044 3.926 4.027 2.881 6.663l-9.832 24.815c-1.045 2.635-4.028 3.925-6.663 2.881z" fill="#fff"/><path d="m163.204 219.821c-2.636-1.044-3.926-4.027-2.881-6.663l9.832-24.814c.373-.943 1.001-1.704 1.766-2.257l-1.577-.625c-2.635-1.044-5.619.246-6.663 2.881l-9.832 24.814c-1.044 2.635.246 5.619 2.881 6.663l24.814 9.832c1.693.671 3.523.369 4.897-.625z" fill="#d2f0ff"/></g><g><path d="m237.946 149.613-24.814-9.832c-2.636-1.044-3.926-4.027-2.881-6.663l9.832-24.815c1.044-2.636 4.027-3.926 6.663-2.881l24.815 9.832c2.636 1.044 3.926 4.027 2.881 6.663l-9.832 24.815c-1.045 2.635-4.028 3.925-6.664 2.881z" fill="#fff"/><path d="m219.605 139.781c-2.636-1.044-3.926-4.027-2.881-6.663l9.832-24.814c.373-.943 1.001-1.704 1.766-2.257l-1.577-.625c-2.635-1.044-5.619.246-6.663 2.881l-9.832 24.814c-1.044 2.635.246 5.619 2.881 6.663l24.814 9.832c1.693.671 3.523.369 4.897-.625z" fill="#d2f0ff"/></g><g><path d="m182.84 173.612h-26.691c-2.835 0-5.133-2.298-5.133-5.133v-26.691c0-2.835 2.298-5.133 5.133-5.133h26.691c2.835 0 5.133 2.298 5.133 5.133v26.691c-.001 2.835-2.299 5.133-5.133 5.133z" fill="#fff"/><path d="m158.783 168.479v-26.691c0-2.835 2.298-5.133 5.133-5.133h-7.768c-2.835 0-5.133 2.298-5.133 5.133v26.691c0 2.835 2.298 5.133 5.133 5.133h7.768c-2.835 0-5.133-2.299-5.133-5.133z" fill="#d2f0ff"/></g><g><path d="m225.065 212.513h-26.691c-2.835 0-5.133-2.298-5.133-5.133v-26.691c0-2.835 2.298-5.133 5.133-5.133h26.691c2.835 0 5.133 2.298 5.133 5.133v26.691c0 2.835-2.298 5.133-5.133 5.133z" fill="#fff"/><path d="m201.009 207.38v-26.691c0-2.835 2.298-5.133 5.133-5.133h-7.768c-2.835 0-5.133 2.298-5.133 5.133v26.691c0 2.835 2.298 5.133 5.133 5.133h7.768c-2.835 0-5.133-2.298-5.133-5.133z" fill="#d2f0ff"/></g><g><circle cx="122.795" cy="322.196" fill="none" r="31.14" stroke="#ffc305" stroke-miterlimit="10" stroke-width="14.836"/><path d="m122.45 218.496 33.581 228.363c2.015 13.704 13.772 23.858 27.623 23.858h140.981c13.851 0 25.608-10.155 27.623-23.858l33.581-228.363z" fill="#50555a"/><g fill="#44484d"><path d="m122.45 218.496 33.581 228.363c2.015 13.704 13.772 23.858 27.623 23.858h5.557l-37.09-252.222h-29.671z"/><path d="m374.626 294.76h-240.961l3.598 24.469h233.765z"/><path d="m385.316 222.064h-258.02v24.469h254.422z"/></g><path d="m376.971 308.844h-245.651c-6.757 0-12.235-5.478-12.235-12.235 0-6.757 5.478-12.235 12.235-12.235h245.651c6.757 0 12.235 5.478 12.235 12.235-.001 6.757-5.478 12.235-12.235 12.235z" fill="#ffe65a"/><path d="m150.241 296.609c0-6.757 5.478-12.235 12.235-12.235h-31.156c-6.757 0-12.235 5.478-12.235 12.235 0 6.757 5.478 12.234 12.235 12.234h31.155c-6.756.001-12.234-5.477-12.234-12.234z" fill="#ffc305"/><path d="m122.45 218.496h263.391" fill="none" stroke="#696e73" stroke-linecap="round" stroke-miterlimit="10" stroke-width="25.963"/><path d="m166.267 218.496c0-7.169 5.812-12.981 12.981-12.981h1.637c-.001 0-.002 0-.003 0h-58.432c-7.169 0-12.981 5.812-12.981 12.981s5.812 12.981 12.981 12.981h56.795c-7.168-.001-12.978-5.812-12.978-12.981z" fill="#82878c"/><circle cx="389.205" cy="330.717" fill="none" r="31.14" stroke="#ffe65a" stroke-miterlimit="10" stroke-width="14.836"/></g></g></svg>