<svg id="Layer_1" enable-background="new 0 0 512 512" height="512" viewBox="0 0 512 512" width="512" xmlns="http://www.w3.org/2000/svg"><g><g><circle cx="256" cy="256" fill="#55c7a6" r="256"/></g><g><g><path d="m86.648 477.422h336.024v20.655h-336.024z" fill="#50555a"/></g><g><path d="m86.648 477.422h85.701v20.655h-85.701z" fill="#373c41"/></g><g><path d="m380.484 481.553h-251.336l-29.388-375.918h310.213z" fill="#e33442"/></g><g><path d="m384.046 207.109h-258.46c-17.974 0-32.545-14.571-32.545-32.545v-81.524h323.549v81.524c0 17.974-14.569 32.545-32.544 32.545z" fill="#fd4755"/></g><g><path d="m142.012 174.564v-81.524h-48.97v81.524c0 17.974 14.571 32.545 32.545 32.545h48.971c-17.975 0-32.546-14.571-32.546-32.545z" fill="#d62433"/></g><g><path d="m404.109 465.202h-7.941v-28.838c0-6.863-5.583-12.446-12.446-12.446h-258.821c-6.863 0-12.446 5.583-12.446 12.446v28.838h-7.941v-28.838c0-11.242 9.146-20.388 20.388-20.388h258.821c11.242 0 20.388 9.146 20.388 20.388v28.838z" fill="#b4d7dc"/></g><g><path d="m404.44 94.941h-7.941v-28.839c0-6.863-5.583-12.446-12.446-12.446h-258.821c-6.863 0-12.446 5.583-12.446 12.446v28.838h-7.941v-28.838c0-11.242 9.146-20.388 20.388-20.388h258.821c11.242 0 20.388 9.146 20.388 20.388v28.839z" fill="#b4d7dc"/></g><g><path d="m422.984 483.154h-336.336v-23.617c0-10.004 8.11-18.113 18.114-18.113h300.108c10.004 0 18.114 8.109 18.114 18.113z" fill="#fd4755"/></g><g><path d="m151.086 441.423h-46.324c-10.004 0-18.114 8.109-18.114 18.113v23.618h46.324v-23.618c0-10.004 8.11-18.113 18.114-18.113z" fill="#d62433"/></g><g><path d="m83.588 81.705h342.556v23.93h-342.556z" fill="#50555a"/></g><g><path d="m293.563 255.072h104.169v13.235h-104.169z" fill="#373c41"/></g><g><path d="m83.588 81.705h83.724v23.93h-83.724z" fill="#373c41"/></g><g><g><path d="m205.794 241.637h98.146v40.102h-98.146z" fill="#50555a"/></g><g><path d="m205.794 241.637h22.12v40.102h-22.12z" fill="#373c41"/></g><g><path d="m196.304 207.109h117.124v47.856h-117.124z" fill="#373c41"/></g><g><path d="m196.304 207.109h26.397v47.856h-26.397z" fill="#2f3438"/></g></g><g><g><path d="m123.372 223.084h41.729v18.555h-41.729z" fill="#50555a"/></g><g><path d="m123.372 223.084h9.405v18.555h-9.405z" fill="#373c41"/></g><g><path d="m119.337 207.109h49.798v22.142h-49.798z" fill="#373c41"/></g><g><path d="m119.337 207.109h11.223v22.142h-11.223z" fill="#2f3438"/></g></g><g><circle cx="120.898" cy="137.661" fill="#fff" r="12.413"/></g><g><circle cx="120.898" cy="137.661" fill="#ffc305" r="7.724"/></g><g><circle cx="163.717" cy="137.661" fill="#fff" r="12.413"/></g><g><circle cx="163.717" cy="137.661" fill="#73c8f0" r="7.724"/></g><g><path d="m475.572 287.458-94.353-4.909c-8.727-.453-15.569-7.662-15.569-16.401v-8.919c0-8.739 6.843-15.947 15.569-16.402l94.353-4.909c9.393-.488 17.276 6.996 17.276 16.402v18.737c.001 9.406-7.883 16.89-17.276 16.401z" fill="#ffe65a"/></g><g><path d="m475.572 271.576-94.353-4.909c-7.534-.392-13.652-5.821-15.188-12.92-.243 1.124-.382 2.286-.382 3.481v8.919c0 8.739 6.843 15.947 15.569 16.401l94.353 4.909c9.393.489 17.276-6.996 17.276-16.401v-15.883c.002 9.407-7.882 16.892-17.275 16.403z" fill="#ffc305"/></g><g><g><path d="m189.346 367.333c0 37.118 30.091 67.21 67.208 67.21 37.118 0 67.209-30.092 67.209-67.21v-26.374h-134.417z" fill="#fff"/></g><g><path d="m201.608 367.333v-26.374h-12.261v26.374c0 37.118 30.091 67.21 67.209 67.21 2.067 0 4.109-.108 6.131-.291-34.244-3.099-61.079-31.869-61.079-66.919z" fill="#d2f0ff"/></g><g><path d="m230.389 429.12h52.332v11.011h-52.332z" fill="#fff"/></g><g><path d="m328.977 398.419c-13.275 0-24.076-10.801-24.076-24.077 0-13.275 10.801-24.076 24.076-24.076 13.276 0 24.077 10.801 24.077 24.076 0 13.276-10.801 24.077-24.077 24.077zm0-35.892c-6.515 0-11.814 5.3-11.814 11.814s5.3 11.815 11.814 11.815 11.815-5.301 11.815-11.815-5.301-11.814-11.815-11.814z" fill="#fff"/></g></g></g></g></svg>